<?xml version="1.0" encoding="UTF-8"?>
<svg width="60px" height="60px" viewBox="0 0 60 60" version="1.1" xmlns="http://www.w3.org/2000/svg" xmlns:xlink="http://www.w3.org/1999/xlink">
    <!-- Generator: Sketch 55.2 (78181) - https://sketchapp.com -->
    <title>power icon</title>
    <desc>Created with Sketch.</desc>
    <g id="R1S" stroke="none" stroke-width="1" fill="none" fill-rule="evenodd">
        <g id="RDE_Web_Product_R1S" transform="translate(-493.000000, -2099.000000)">
            <g id="R1S-brand-quote-" transform="translate(0.000000, 1100.000000)">
                <g id="hp" transform="translate(374.000000, 999.000000)">
                    <g id="power-icon" transform="translate(119.000000, 0.000000)">
                        <path d="M10.9510929,50.624 L14.9908509,46.5842129 C15.4916326,46.1951103 15.5823183,45.4731932 15.1927718,44.972408 C14.803672,44.4716227 14.0817602,44.3804896 13.5809785,44.7700389 C13.5054815,44.8285606 13.4371322,44.8969104 13.3790576,44.972408 L9.28390543,49.0121951 C4.7518536,44.1160249 2.12241476,37.7594916 1.87180056,31.092927 L7.63414028,31.092927 C8.26894025,31.092927 8.78312375,30.5787398 8.78312375,29.944382 C8.78312375,29.320299 8.27742807,28.8141529 7.65290284,28.8141529 L7.63414028,28.8141529 L1.87180056,28.8141529 C2.1376035,22.1618838 4.76525543,15.8223262 9.28390543,10.9324103 L13.3790576,14.934672 C13.8798393,15.3242213 14.6013044,15.233535 14.9908509,14.7327497 C15.3133883,14.3177367 15.3133883,13.7378801 14.9908509,13.3228671 L10.9881713,9.26476402 C15.8771585,4.7456347 22.2175638,2.11751708 28.869785,1.85260568 L28.869785,7.57880178 C28.950196,8.20824555 29.5255811,8.65318948 30.1550204,8.5723312 C30.6736712,8.50621503 31.0824269,8.09790303 31.1489894,7.57880178 L31.1489894,1.85260568 C37.8012105,2.11751708 44.1416158,4.7456347 49.0301563,9.26476402 L45.0279234,13.3228671 C44.6383769,13.8236524 44.7290626,14.5455695 45.2298443,14.934672 C45.6448543,15.2572117 46.2251535,15.2572117 46.6401634,14.934672 L50.6423963,10.9324103 C55.1605996,15.8223262 57.7882515,22.1618838 58.0540544,28.8141529 L52.3841873,28.8141529 C51.7601088,28.8141529 51.2539664,29.320299 51.2539664,29.944382 C51.2436917,30.568465 51.7413463,31.083099 52.3654248,31.092927 L52.3841873,31.092927 L58.0911328,31.092927 C57.8405186,37.7594916 55.2110798,44.1160249 50.6794747,49.0121951 L46.6401634,44.972408 C46.1393818,44.5833054 45.4170232,44.673545 45.0279234,45.1743303 C44.7058328,45.5888965 44.7058328,46.1696466 45.0279234,46.5842129 L49.0672347,50.624 C38.3337099,60.6338983 21.6846178,60.6338983 10.9510929,50.624 M30.0187685,6.41045077e-06 C13.4500873,-0.0107087119 0.010286518,13.41266 5.88783998e-06,29.9814607 C-0.0102629531,46.5502613 13.4130089,59.9901591 29.9816901,59.9999936 C46.5499245,60.0107087 59.9897253,46.58734 60.0000059,30.0185393 L60.0000059,29.9997766 C59.9897253,13.4430377 46.5753879,0.0205624479 30.0187685,6.41045077e-06" id="Power" fill="#FFFFFF"></path>
                        <path d="M34.8178741,52.0876243 L25.2011683,52.0876243 C23.5380014,51.9571789 22.2956518,50.50307 22.4260963,48.839891 C22.5422455,47.3585315 23.718926,46.1818424 25.2011683,46.0656924 L34.8178741,46.0656924 C36.481041,46.1961378 37.7233906,47.6498 37.5924994,49.312979 C37.4763502,50.7943385 36.2992229,51.9714743 34.8178741,52.0876243 M34.8178741,44.2126528 L25.2011683,44.2126528 C22.5145483,44.3783899 20.4712162,46.6906688 20.6369521,49.3773082 C20.7888395,51.8320942 22.7459533,53.7892221 25.2011683,53.9406639 L34.8178741,53.9406639 C37.504494,53.7749267 39.5473795,51.4630946 39.3816435,48.7764552 C39.2302029,46.3212224 37.2726424,44.3640946 34.8178741,44.2126528" id="Fill-4" fill="#FFAC00"></path>
                        <path d="M30.0185898,27.5170252 C31.3895969,27.5170252 32.5019487,28.6284916 32.5019487,29.9999553 C32.5019487,31.3714191 31.3895969,32.4828854 30.0185898,32.4828854 C28.6475827,32.4828854 27.5352309,31.3714191 27.5352309,29.9999553 C27.5352309,28.6284916 28.6475827,27.5170252 30.0185898,27.5170252 L30.0185898,27.5170252 Z M30.0185898,34.317609 C32.3925004,34.3260969 34.3250441,32.4087281 34.333532,30.0348003 C34.338446,28.7245387 33.7460851,27.4839672 32.7239723,26.6646628 L38.6533882,13.8417003 C38.9826264,13.3109841 38.8195708,12.6145307 38.2893051,12.28529 C37.7585927,11.9560494 37.0621443,12.1191061 36.7324593,12.6498224 C36.6712577,12.7489966 36.6252447,12.8575522 36.5971009,12.9705752 L30.6301599,25.831063 C30.4264521,25.812747 30.2218508,25.812747 30.0185898,25.831063 C27.6285969,25.6742605 25.5647153,27.4848606 25.4088073,29.8739772 C25.2520059,32.2639873 27.062593,34.3278838 29.4516924,34.4842396 C29.6406582,34.4967481 29.8300707,34.4967481 30.0185898,34.4842396 L30.0185898,34.317609 Z" id="Fill-6" fill="#FFAC00"></path>
                    </g>
                </g>
            </g>
        </g>
    </g>
</svg>