<?xml version="1.0" encoding="UTF-8"?>
<svg width="59px" height="59px" viewBox="0 0 59 59" version="1.1" xmlns="http://www.w3.org/2000/svg" xmlns:xlink="http://www.w3.org/1999/xlink">
    <!-- Generator: Sketch 55.2 (78181) - https://sketchapp.com -->
    <title>Speed Icon</title>
    <desc>Created with Sketch.</desc>
    <g id="R1S" stroke="none" stroke-width="1" fill="none" fill-rule="evenodd">
        <g id="RDE_Web_Product_R1S" transform="translate(-1037.000000, -1566.000000)">
            <g id="R1S-brand-quote-" transform="translate(0.000000, 1100.000000)">
                <g id="0-60" transform="translate(919.000000, 466.000000)">
                    <g id="Speed-Icon" transform="translate(118.000000, 0.000000)">
                        <path d="M24.616408,58.5410528 C24.5554598,58.5410528 24.4960228,58.5360161 24.4350746,58.5259426 C8.42233357,55.7426437 -2.34483703,40.449106 0.438125991,24.4353153 C3.22108901,8.41951001 18.5014449,-2.34499692 34.5308082,0.438302038 C48.6969715,2.90076107 58.9720235,15.123906 58.9634606,29.5027729 C59.1941569,33.1015191 58.3292976,36.7103386 56.458542,39.8734073 C56.1623642,40.3710366 55.5236679,40.5342268 55.0260086,40.2400815 C54.5303642,39.9464399 54.3651494,39.3057674 54.6588086,38.8096492 C56.3154901,36.009729 57.0826309,32.8139216 56.8766161,29.5677468 C56.8831642,16.1408225 47.3339492,4.78399574 34.1716674,2.49681504 C19.2912523,-0.0940806974 5.08227424,9.9149162 2.49474826,24.7924197 C-0.0882443907,39.671938 9.91380027,53.881067 24.7942154,56.4674296 C25.3613858,56.5661496 25.7426895,57.1065911 25.6429562,57.6747347 C25.554808,58.1829411 25.1140673,58.5410528 24.616408,58.5410528 Z M28.8147784,26.5553771 C27.304171,26.5548735 26.0700969,27.7611712 26.0358451,29.2711839 C26.0353413,29.2918345 26.0348375,29.3124852 26.0348375,29.3331358 C26.0343339,30.8678285 27.2784821,32.1119017 28.8132673,32.1124055 C30.3480526,32.112909 31.5927044,30.8688358 31.5932081,29.3346468 C31.5932081,27.7999541 30.3495637,26.5558809 28.8147784,26.5553771 Z M28.8147784,34.2021461 L28.8147784,34.2646016 C26.1285265,34.2625869 23.9515191,32.0857106 23.9500066,29.3996206 C23.9479932,26.711516 26.126008,24.5301067 28.8147784,24.5290993 L29.5250007,24.5290993 L36.2529712,10.0293508 L36.2544823,10.0268324 C36.5486453,9.38767093 37.305712,9.10813222 37.944912,9.40278113 C38.5886453,9.70498514 38.8687046,10.4695613 38.5720231,11.1162779 L31.8863637,25.5732142 C33.0438748,26.5019878 33.7132971,27.9097549 33.7007045,29.3945839 C33.6790452,32.0711041 31.49146,34.223804 28.8147784,34.2021461 Z" id="Speed" fill="#FFFFFF"></path>
                        <path d="M29.8172496,59 C29.5502866,59 29.2823162,58.898258 29.0788199,58.6942703 C28.6708199,58.2862949 28.6708199,57.6254754 29.0788199,57.2169963 L37.4705238,48.8268056 L28.7237088,40.0805178 C28.3157088,39.6720387 28.3157088,39.0107156 28.7237088,38.6027402 C29.1317088,38.1947648 29.7925681,38.1947648 30.2010718,38.6027402 L39.6868202,48.0879168 C39.8822572,48.2838457 39.9925683,48.5492816 39.9925683,48.8268056 C39.9925683,49.1043296 39.8822572,49.3692618 39.6868202,49.5651907 L30.5561829,58.6942703 C30.3521829,58.898258 30.0847162,59 29.8172496,59" id="Fill-1" fill="#FFAC00"></path>
                        <path d="M39.3030483,59 C39.0360853,59 38.768115,58.898258 38.5641149,58.6942703 C38.1566186,58.2862949 38.1566186,57.6254754 38.5641149,57.2169963 L46.9563225,48.8268056 L38.2095075,40.0805178 C37.8015075,39.6720387 37.8015075,39.0107156 38.2095075,38.6027402 C38.6175075,38.1947648 39.2783668,38.1947648 39.6868705,38.6027402 L49.1721152,48.0879168 C49.3680559,48.2838457 49.478367,48.5492816 49.478367,48.8268056 C49.478367,49.1043296 49.3680559,49.3692618 49.1721152,49.5651907 L40.0414779,58.6942703 C39.8379816,58.898258 39.5700113,59 39.3030483,59" id="Fill-3" fill="#FFAC00"></path>
                        <path d="M48.7887966,59 C48.52133,59 48.2538633,58.898258 48.0498633,58.6942703 C47.642367,58.2862949 47.642367,57.6254754 48.0498633,57.2169963 L56.4420709,48.8268056 L47.6947522,40.0805178 C47.2872559,39.6720387 47.2872559,39.0107156 47.6947522,38.6027402 C48.1032559,38.1947648 48.7641152,38.1947648 49.1721152,38.6027402 L58.6578635,48.0879168 C58.8533006,48.2838457 58.9636117,48.5492816 58.9636117,48.8268056 C58.9636117,49.1043296 58.8533006,49.3692618 58.6578635,49.5651907 L49.5272263,58.6942703 C49.3232263,58.898258 49.0557596,59 48.7887966,59" id="Fill-5" fill="#FFAC00"></path>
                    </g>
                </g>
            </g>
        </g>
    </g>
</svg>