<?xml version="1.0" encoding="UTF-8"?>
<svg width="119px" height="86px" viewBox="0 0 119 86" version="1.1" xmlns="http://www.w3.org/2000/svg" xmlns:xlink="http://www.w3.org/1999/xlink">
    <!-- Generator: Sketch 55.2 (78181) - https://sketchapp.com -->
    <title>distance</title>
    <desc>Created with Sketch.</desc>
    <g id="R1S" stroke="none" stroke-width="1" fill="none" fill-rule="evenodd">
        <g id="RDE_Web_Product_R1S" transform="translate(-465.000000, -1551.000000)">
            <g id="R1S-brand-quote-" transform="translate(0.000000, 1100.000000)">
                <g id="400+-mi" transform="translate(396.000000, 452.000000)">
                    <g id="distance" transform="translate(70.000000, 0.000000)">
                        <path d="M80.4033979,52.8880402 C80.0144789,52.8880402 79.6861804,52.5888213 79.6577412,52.1964071 C79.6278051,51.7856024 79.9376431,51.4287266 80.3500119,51.3989041 C80.8494448,51.3626201 81.3618499,51.3350343 81.8725087,51.3166438 C81.8814896,51.3163953 81.8907198,51.3161467 81.8999501,51.3161467 C82.300594,51.3161467 82.632884,51.6322651 82.6473531,52.0346201 C82.6623211,52.4461704 82.3397603,52.7916142 81.9263936,52.806774 C81.4339458,52.8244189 80.9400013,52.8512592 80.4585301,52.8860521 C80.43982,52.8872947 80.421609,52.8880402 80.4033979,52.8880402 M87.6354448,52.9531527 C87.6149885,52.9531527 87.5942827,52.9524071 87.5733275,52.9506675 C87.0811292,52.9101586 86.5854384,52.8763598 86.1002252,52.8505136 C85.6876068,52.8281467 85.3710333,52.4767385 85.3932358,52.0654367 C85.4154384,51.6543834 85.7611996,51.3385136 86.1810525,51.361129 C86.6802358,51.3882178 87.1898968,51.4227621 87.6960652,51.4642651 C88.1081846,51.4983124 88.4145301,51.8581704 88.380852,52.2687266 C88.3484213,52.6581586 88.0211207,52.9531527 87.6354448,52.9531527 M93.3245386,53.7029396 C93.2803829,53.7029396 93.2357284,53.6992118 93.1908243,53.6907621 C92.6993744,53.6027858 92.208174,53.5205254 91.7314426,53.4462178 C91.3228158,53.382845 91.0434128,53.0016142 91.1072763,52.5947858 C91.1711399,52.1879574 91.5575642,51.9101112 91.9619501,51.972987 C92.4506559,52.0490343 92.9533318,52.1332828 93.4562571,52.2234959 C93.8628883,52.2965609 94.1333104,52.6842533 94.0599672,53.0895905 C93.9948563,53.4499456 93.6797795,53.7029396 93.3245386,53.7029396 M74.7375045,53.7543834 C74.4007241,53.7543834 74.0948776,53.5264899 74.0110567,53.1860166 C73.9125173,52.7861467 74.1584917,52.3825491 74.559884,52.2843834 C75.047093,52.1655905 75.5512657,52.0554959 76.057933,51.9575787 C76.4630674,51.8785491 76.8562273,52.1432237 76.9353083,52.5475669 C77.0138904,52.9516615 76.7489565,53.3430817 76.3430738,53.4213657 C75.8601058,53.5145609 75.3798819,53.6194367 74.9161228,53.7327621 C74.8565002,53.7474249 74.7963787,53.7543834 74.7375045,53.7543834 M98.9198328,54.978845 C98.8524768,54.978845 98.7843723,54.9696497 98.7165173,54.9507621 C98.2530077,54.8207858 97.7725343,54.6932947 97.2885684,54.5715195 C96.8874256,54.4708686 96.6446942,54.0655314 96.7457284,53.6664071 C96.8467625,53.2667858 97.254142,53.0257207 97.654287,53.125626 C98.1517241,53.250632 98.6454192,53.3816024 99.1219011,53.5153065 C99.5198009,53.6268923 99.7518051,54.0386911 99.639545,54.4350817 C99.5467433,54.7638746 99.2463851,54.978845 98.9198328,54.978845 M69.3560034,55.699555 C69.0820887,55.699555 68.8181527,55.5492 68.6866836,55.2885018 C68.5010802,54.9206911 68.6502614,54.4726083 69.0194725,54.2877089 C69.4725045,54.061058 69.943997,53.8438509 70.4214768,53.6418036 C70.8016644,53.4815077 71.2407262,53.6577089 71.4028797,54.0369515 C71.5642849,54.4159456 71.3866644,54.8535905 71.0062273,55.014632 C70.5581846,55.2037562 70.1158797,55.4077917 69.6915365,55.6200284 C69.5837667,55.6739574 69.4690119,55.699555 69.3560034,55.699555 M64.6438222,58.9246083 C64.4420034,58.9246083 64.240933,58.8438391 64.0932486,58.6842888 C63.8130972,58.381342 63.8325557,57.9098982 64.1364064,57.6308095 C64.5148478,57.283626 64.9119991,56.9456379 65.3171335,56.6267858 C65.64169,56.3718036 66.1119352,56.4264781 66.3683872,56.7498036 C66.6245898,57.0728805 66.5694576,57.5418391 66.2449011,57.7970698 C65.8694533,58.0923124 65.5014896,58.4054485 65.150739,58.7272828 C65.0067966,58.8592473 64.8251846,58.9246083 64.6438222,58.9246083 M61.0455109,63.3455432 C60.9145407,63.3455432 60.7818243,63.3112473 60.6610823,63.2391763 C60.3068392,63.0274367 60.191835,62.569413 60.4046303,62.2162651 C60.6713104,61.7734012 60.9552038,61.3382414 61.248078,60.9227148 C61.4855706,60.5857207 61.9518243,60.5042059 62.2906004,60.7410462 C62.6288776,60.9776379 62.7104533,61.4426201 62.4729608,61.7793657 C62.2005429,62.1658154 61.9366068,62.5711527 61.6881377,62.983697 C61.5476878,63.2168095 61.2999672,63.3455432 61.0455109,63.3455432 M58.7359458,68.556774 C58.6621036,68.556774 58.5870141,68.5458391 58.5129224,68.5227266 C58.1182657,68.4002059 57.8979864,67.9821941 58.0209736,67.5890343 C58.1748947,67.0974604 58.342287,66.6101112 58.5186601,66.1404071 C58.663351,65.7544544 59.0946793,65.5591172 59.4821015,65.7035077 C59.8690247,65.8478982 60.0656047,66.2775905 59.9206644,66.6632947 C59.7540205,67.1069041 59.595609,67.567413 59.4501697,68.0326438 C59.3501335,68.3519929 59.0547646,68.556774 58.7359458,68.556774 M56.5768094,73.836845 C56.4550695,73.836845 56.3313339,73.8070225 56.217078,73.7443953 C55.854852,73.5458272 55.7226345,73.092774 55.9217092,72.7319219 C56.149722,72.318632 56.3702507,71.8862059 56.5768094,71.4468213 C56.7519352,71.0740402 57.1972337,70.9132473 57.571933,71.0877089 C57.9461335,71.2626675 58.1077881,71.7062769 57.9324128,72.0793065 C57.7121335,72.5475195 57.4771356,73.0090225 57.2334064,73.4501467 C57.0971974,73.6969278 56.8409949,73.836845 56.5768094,73.836845 M53.1468883,78.3870107 C52.952803,78.3870107 52.7589672,78.3122059 52.6122806,78.162845 C52.3228989,77.868845 52.3278883,77.3966556 52.6235066,77.1086201 C52.9627817,76.7775905 53.2930759,76.4276734 53.6049096,76.0683124 C53.8750823,75.756916 54.3478222,75.7228686 54.6606537,75.9925136 C54.9732358,76.2619101 55.0071633,76.7326083 54.7367412,77.0440047 C54.3982145,77.4341822 54.0392316,77.8141704 53.6705194,78.1740284 C53.5248307,78.3159337 53.3359842,78.3870107 53.1468883,78.3870107 M21.9754938,80.9542296 C21.8896772,80.9542296 21.8028627,80.9393183 21.7177945,80.9082533 C20.8137262,80.5777207 20.3010716,80.3572828 20.2796175,80.3480876 C19.9006772,80.1845609 19.7260503,79.7456734 19.890449,79.3679219 C20.0545983,78.9901704 20.4956559,78.8162059 20.8743467,78.9797325 C20.879336,78.9817207 21.3737795,79.1944544 22.2331932,79.5083361 C22.6213638,79.6502414 22.8204384,80.0784426 22.6779928,80.4651408 C22.56698,80.7670935 22.2803424,80.9542296 21.9754938,80.9542296 M48.4826047,81.6672355 C48.2064448,81.6672355 47.9407625,81.5141467 47.8107902,81.2504663 C47.6281804,80.8811645 47.7806047,80.4343243 48.1518115,80.2524071 C48.5808947,80.0419101 49.0057369,79.8125254 49.4136154,79.5702178 C49.7681079,79.3594722 50.2278755,79.4752828 50.4396729,79.8291763 C50.6509714,80.1828213 50.5349693,80.6405964 50.1797284,80.851342 C49.7374235,81.1135314 49.2774064,81.3623006 48.8124,81.5901941 C48.7061271,81.6423834 48.5936175,81.6672355 48.4826047,81.6672355 M27.4697539,82.6133538 C27.4111292,82.6133538 27.3517561,82.6063953 27.2921335,82.5917325 C26.8079181,82.4744308 26.3129757,82.3461941 25.8210269,82.2114959 C25.4223787,82.1023953 25.1881292,81.6920876 25.2976452,81.2952 C25.4076601,80.8978154 25.820029,80.6652 26.2176793,80.7738036 C26.6959075,80.904774 27.1768797,81.0290343 27.646626,81.1433538 C28.0482678,81.2410225 28.2944917,81.6443716 28.1964512,82.0442414 C28.1131292,82.3849633 27.8070333,82.6133538 27.4697539,82.6133538 M43.0487156,83.4426675 C42.6967177,83.4426675 42.3828883,83.1938982 42.3142849,82.8370225 C42.2367006,82.4324308 42.5028819,82.0420047 42.9087646,81.9647148 C43.3884896,81.8732592 43.864223,81.7673893 44.3229928,81.6495905 C44.7236367,81.5472 45.1312657,81.787271 45.2342955,82.1858982 C45.3375748,82.5845254 45.0965898,82.9911053 44.6961953,83.0937444 C44.2072401,83.2192473 43.7003232,83.3320757 43.1899139,83.4292473 C43.1425151,83.4384426 43.0951164,83.4426675 43.0487156,83.4426675 M33.1136942,83.6462059 C33.0837582,83.6462059 33.0538222,83.6444663 33.0236367,83.6407385 C32.526948,83.5815905 32.0190333,83.5122533 31.5141122,83.4342178 C31.1057348,83.3710935 30.8260823,82.9903598 30.8891974,82.5832828 C30.9523126,82.1764544 31.3362422,81.8986083 31.7431228,81.9604899 C32.2310802,82.0357917 32.7217817,82.1031408 33.2015066,82.1603006 C33.6121292,82.2090107 33.9047539,82.5805491 33.855609,82.9891172 C33.810206,83.3681112 33.4871463,83.6462059 33.1136942,83.6462059 M37.5873851,83.9265373 C37.5038136,83.9265373 37.4194938,83.9260402 37.335174,83.9252947 C36.9218072,83.9210698 36.5900162,83.5840757 36.5942571,83.1722769 C36.5982486,82.7632118 36.9325343,82.4341704 37.3424085,82.4341704 L37.3498925,82.4341704 C37.4454384,82.4351645 37.5417326,82.435413 37.637029,82.435413 C38.0331825,82.435413 38.4270908,82.4279574 38.8102721,82.4140402 C39.2311228,82.3978864 39.5703979,82.7199692 39.5861143,83.131271 C39.6013318,83.5430698 39.278771,83.8887621 38.8659032,83.9041704 C38.4477966,83.9195787 38.0207092,83.9262888 37.5873851,83.9265373" id="dots" stroke="#FFAC00" fill="#FBAF17"></path>
                        <path d="M86.6088883,20.0223941 L86.6959522,20.2035657 C86.7021889,20.2167373 86.7074277,20.2301574 86.7116687,20.2440746 C87.214594,21.8281456 87.8539778,23.1627018 88.6664917,24.3242876 C88.6762209,24.3379562 88.6847028,24.3528675 88.6921868,24.3677787 L101.094935,50.2440036 L114.392522,22.8095538 C114.661946,22.3080391 114.960308,21.7525953 115.186325,21.1745361 L115.228984,21.0855657 C115.228485,21.0480391 115.234971,21.0102639 115.248692,20.9737314 C115.911276,19.2050095 116.247308,17.4365361 116.247308,15.7175183 C116.247308,7.39356568 109.449334,0.621376331 101.093688,0.621376331 C92.7377923,0.621376331 85.9398179,7.39356568 85.9398179,15.7175183 C85.9398179,17.0085834 86.1498691,18.3336959 86.6006559,19.8871988 C86.6136281,19.931684 86.6158733,19.9776604 86.6088883,20.0223941 Z M101.093688,51.2723822 L101.092939,51.2723822 C100.972946,51.2723822 100.863929,51.203542 100.812289,51.095684 L88.1403659,24.6582994 C87.301658,23.4549621 86.6418179,22.0784059 86.1239245,20.4520864 L85.9572806,20.104903 C85.920609,20.0286071 85.9173659,19.9418734 85.9458051,19.8643349 C85.516722,18.3366781 85.3161505,17.0140509 85.3161505,15.7175183 C85.3161505,7.05085562 92.3937774,7.45562132e-05 101.093688,7.45562132e-05 C109.793349,7.45562132e-05 116.870976,7.05085562 116.870976,15.7175183 C116.870976,17.4646189 116.539434,19.2576959 115.885332,21.0490331 C115.892067,21.1061929 115.882338,21.1653408 115.856144,21.2187728 L115.757605,21.4223112 C115.527846,22.013045 115.220003,22.5856367 114.948334,23.0913763 L101.374338,51.0969266 C101.3222,51.2042876 101.213183,51.2723822 101.093688,51.2723822 Z M101.093563,7.85894556 C96.874578,7.85894556 93.4419128,11.2785905 93.4419128,15.4818213 C93.4419128,19.6850521 96.874578,23.104697 101.093563,23.104697 C105.312798,23.104697 108.745463,19.6850521 108.745463,15.4818213 C108.745463,11.2785905 105.312798,7.85894556 101.093563,7.85894556 Z M101.093563,23.7259988 C96.5305631,23.7259988 92.8182454,20.0277621 92.8182454,15.4818213 C92.8182454,10.9358805 96.5305631,7.23764379 101.093563,7.23764379 C105.656813,7.23764379 109.36913,10.9358805 109.36913,15.4818213 C109.36913,20.0277621 105.656813,23.7259988 101.093563,23.7259988 Z" id="pin" stroke="#FFFFFF" stroke-width="1.24999993" fill="#FEFEFE"></path>
                        <path d="M1.29241343,44.4240213 L1.37972687,44.6054414 C1.38596354,44.618613 1.39120235,44.6320331 1.39544328,44.6459503 C1.89786972,46.2290272 2.53700405,47.563832 3.35001684,48.7264118 C3.35974606,48.7400805 3.36822793,48.7549917 3.37571194,48.769903 L15.7787098,74.6461278 L29.0762962,47.2114296 C29.3452215,46.7106604 29.6433345,46.1562107 29.8701,45.5764118 L29.9125094,45.4879385 C29.9120104,45.4501633 29.9184966,45.4121396 29.9322173,45.3756071 C30.5948015,43.6071337 30.9310829,41.8386604 30.9310829,40.1196426 C30.9310829,31.7954414 24.1331085,25.0232521 15.777213,25.0232521 C7.42156695,25.0232521 0.623592537,31.7954414 0.623592537,40.1196426 C0.623592537,41.4112047 0.833394243,42.7360686 1.28418102,44.2890746 C1.2971533,44.3335598 1.29939851,44.3792876 1.29241343,44.4240213 Z M15.777213,75.6745065 L15.7767141,75.6745065 C15.6567205,75.6745065 15.5477034,75.6056663 15.4960638,75.4978083 L2.82389104,49.0604237 C1.98468422,47.8558438 1.3250936,46.4792876 0.807699147,44.8537136 L0.641055224,44.5067787 C0.604383582,44.4304828 0.601140512,44.3442462 0.629330277,44.2667077 C0.200247122,42.7390509 -7.48400854e-05,41.4164237 -7.48400854e-05,40.1196426 C-7.48400854e-05,31.4529799 7.07755203,24.4019503 15.777213,24.4019503 C24.4771235,24.4019503 31.5547503,31.4529799 31.5547503,40.1196426 C31.5547503,41.8669917 31.2232087,43.6598201 30.5688569,45.4509089 C30.5755925,45.5083172 30.5658633,45.5674651 30.5399188,45.6206485 L30.4416288,45.8239385 C30.2111213,46.4166604 29.9032791,46.9885065 29.6321085,47.4932521 L16.0581128,75.4990509 C16.0059742,75.6064118 15.8969571,75.6745065 15.777213,75.6745065 Z M15.7773128,32.2610698 C11.5580783,32.2610698 8.12541301,35.6807148 8.12541301,39.883697 C8.12541301,44.0869278 11.5580783,47.5065728 15.7773128,47.5065728 C19.9962979,47.5065728 23.4289631,44.0869278 23.4289631,39.883697 C23.4289631,35.6807148 19.9962979,32.2610698 15.7773128,32.2610698 Z M15.7773128,48.1278746 C11.2140633,48.1278746 7.50174563,44.4296379 7.50174563,39.883697 C7.50174563,35.3380047 11.2140633,31.639768 15.7773128,31.639768 C20.3403128,31.639768 24.0526305,35.3380047 24.0526305,39.883697 C24.0526305,44.4296379 20.3403128,48.1278746 15.7773128,48.1278746 Z" id="pin" stroke="#FFFFFF" stroke-width="1.24999993" fill="#FEFEFE"></path>
                    </g>
                </g>
            </g>
        </g>
    </g>
</svg>