<?xml version="1.0" encoding="UTF-8"?>
<svg width="162px" height="71px" viewBox="0 0 162 71" version="1.1" xmlns="http://www.w3.org/2000/svg" xmlns:xlink="http://www.w3.org/1999/xlink">
    <!-- Generator: Sketch 55.2 (78181) - https://sketchapp.com -->
    <title>Skateboard</title>
    <desc>Created with Sketch.</desc>
    <defs>
        <polygon id="path-1" points="0.244472727 0.0371364312 13.587224 0.0371364312 13.587224 26.8664264 0.244472727 26.8664264"></polygon>
    </defs>
    <g id="R1S" stroke="none" stroke-width="1" fill="none" fill-rule="evenodd">
        <g id="RDE_Web_Product_R1S" transform="translate(-446.000000, -1817.000000)">
            <g id="R1S-brand-quote-" transform="translate(0.000000, 1100.000000)">
                <g id="quadmotor" transform="translate(365.000000, 717.000000)">
                    <g id="Skateboard" transform="translate(81.000000, 0.000000)">
                        <path d="M45.6784247,12.5966669 C45.5853273,12.5966669 45.4961747,12.6412729 45.4404214,12.715968 L40.7934409,18.9341428 C40.7558338,18.9848193 40.7340058,19.0500126 40.7340058,19.1133584 L40.7340058,52.187481 C40.7340058,52.2516186 40.7553078,52.3154922 40.7939669,52.3674885 L45.4401584,58.5848714 C45.4961747,58.6598305 45.5853273,58.7041725 45.6784247,58.7041725 L108.691165,58.7041725 C108.75586,58.7041725 108.819503,58.6827933 108.870785,58.6437301 L118.552915,51.2803175 C118.626288,51.2243621 118.67047,51.1351502 118.67047,51.0422431 L118.67047,20.2585963 C118.67047,20.1659532 118.626288,20.0767413 118.552652,20.020258 L108.871311,12.6571093 C108.820029,12.6180461 108.756123,12.5966669 108.691165,12.5966669 L45.6784247,12.5966669 Z M45.6784247,59.4796297 C45.3433792,59.4796297 45.023324,59.3191539 44.8224019,59.0501985 L40.1756844,52.8317599 C40.0376162,52.6470015 39.961613,52.4181651 39.961613,52.187481 L39.961613,19.1133584 C39.961613,18.8826743 40.0373532,18.6538379 40.1754214,18.4690796 L44.8224019,12.2509048 C45.023324,11.9819494 45.3433792,11.8212097 45.6784247,11.8212097 L108.691165,11.8212097 C108.923645,11.8212097 109.153233,11.8988082 109.33785,12.0394885 L119.019191,19.4026372 C119.284808,19.6048156 119.442863,19.9247115 119.442863,20.2585963 L119.442863,51.0422431 C119.442863,51.3763918 119.284808,51.6962877 119.019454,51.8982022 L109.337587,59.2616149 C109.152707,59.4022952 108.923119,59.4796297 108.691165,59.4796297 L45.6784247,59.4796297 Z" id="Fill-1" fill="#FEFEFE"></path>
                        <path d="M45.6784247,58.4403639 C45.6684312,58.4403639 45.6565968,58.4345572 45.650811,58.4263751 L41.0040935,52.2087283 C41.0001487,52.2031855 40.9969929,52.1942115 40.9969929,52.187613 L40.9969929,19.1134903 C40.9969929,19.1066279 41.0001487,19.0976539 41.0043565,19.0921112 L45.650811,12.8744643 C45.6565968,12.8662822 45.6681682,12.8607394 45.6784247,12.8607394 L108.691165,12.8607394 C108.698266,12.8607394 108.706944,12.8633788 108.712204,12.8676019 L118.393808,20.2310145 C118.401434,20.2368212 118.407483,20.2489625 118.407483,20.2587283 L118.407483,51.0423751 C118.407483,51.0521409 118.401434,51.0642822 118.393545,51.0700888 L108.712204,58.4332375 C108.706681,58.4374606 108.698003,58.4403639 108.691165,58.4403639 L45.6784247,58.4403639 Z M108.691165,11.5574011 L45.6784247,11.5574011 C45.2610643,11.5574011 44.862113,11.757468 44.6117494,12.0924086 L39.9650318,18.3105833 C39.7930383,18.5412673 39.698626,18.8260591 39.698626,19.1134903 L39.698626,52.187613 C39.698626,52.4747803 39.7933013,52.7598361 39.9647688,52.9902561 L44.6117494,59.2081669 C44.862113,59.5436353 45.2610643,59.7434383 45.6784247,59.7434383 L108.691165,59.7434383 C108.980451,59.7434383 109.266318,59.6468361 109.496694,59.4718435 L119.178035,52.1086948 C119.50861,51.8568955 119.70585,51.4583454 119.70585,51.0423751 L119.70585,20.2587283 C119.70585,19.842758 119.50861,19.4439439 119.178035,19.1926725 L109.496431,11.8289959 C109.266318,11.6537394 108.980451,11.5574011 108.691165,11.5574011 L108.691165,11.5574011 Z M45.6784247,58.968245 L108.691165,58.968245 C108.812928,58.968245 108.933113,58.9275981 109.029892,58.8539587 L118.711496,51.49081 C118.850353,51.3849699 118.933457,51.2173677 118.933457,51.0423751 L118.933457,20.2587283 C118.933457,20.0837357 118.850353,19.9161335 118.711496,19.8102933 L109.030155,12.4468807 C108.933113,12.3732413 108.812928,12.3328584 108.691165,12.3328584 L45.6784247,12.3328584 C45.5030123,12.3328584 45.3352266,12.4167914 45.2297688,12.5577357 L40.5830513,18.7759104 C40.5109929,18.8725126 40.4710188,18.9926056 40.4710188,19.1134903 L40.4710188,52.187613 C40.4710188,52.3084978 40.5109929,52.4283268 40.5833143,52.5254569 L45.2297688,58.7431037 C45.3352266,58.884048 45.5030123,58.968245 45.6784247,58.968245 L45.6784247,58.968245 Z M108.691165,12.0852822 C108.866577,12.0852822 109.039623,12.143613 109.179006,12.2497171 L118.860347,19.6131297 C119.06048,19.7654234 119.179876,20.006929 119.179876,20.2587283 L119.179876,51.0423751 C119.179876,51.2941743 119.06048,51.5356799 118.860347,51.6879736 L109.179006,59.0511223 C109.039623,59.1572264 108.866577,59.2158212 108.691165,59.2158212 L45.6784247,59.2158212 C45.4256942,59.2158212 45.1842721,59.0946725 45.0325286,58.8917022 L40.385811,52.6735275 C40.2816682,52.5341669 40.2246,52.3615498 40.2246,52.187613 L40.2246,19.1134903 C40.2246,18.9395535 40.2816682,18.7669364 40.385811,18.6273119 L45.0325286,12.4094011 C45.1842721,12.2064309 45.4256942,12.0852822 45.6784247,12.0852822 L108.691165,12.0852822 L108.691165,12.0852822 Z" id="Fill-3" fill="#FEFEFE"></path>
                        <path d="M100.720265,30.4776078 C100.507246,30.4776078 100.333937,30.303671 100.333937,30.0898792 L100.333937,12.2089647 C100.333937,11.9954368 100.507246,11.8212361 100.720265,11.8212361 C100.933285,11.8212361 101.106593,11.9954368 101.106593,12.2089647 L101.106593,30.0898792 C101.106593,30.303671 100.933285,30.4776078 100.720265,30.4776078" id="Fill-5" fill="#FEFEFE"></path>
                        <path d="M100.720265,11.5574011 C100.36234,11.5574011 100.07095,11.8495833 100.07095,12.2090703 L100.07095,30.0899848 C100.07095,30.4492078 100.36234,30.7416539 100.720265,30.7416539 C101.077928,30.7416539 101.36958,30.4492078 101.36958,30.0899848 L101.36958,12.2090703 C101.36958,11.8495833 101.077928,11.5574011 100.720265,11.5574011 M100.720265,12.0852822 C100.788379,12.0852822 100.843606,12.1407097 100.843606,12.2090703 L100.843606,30.0899848 C100.843606,30.1583454 100.788379,30.2137729 100.720265,30.2137729 C100.651889,30.2137729 100.596924,30.1583454 100.596924,30.0899848 L100.596924,12.2090703 C100.596924,12.1407097 100.651889,12.0852822 100.720265,12.0852822" id="Fill-7" fill="#FEFEFE"></path>
                        <path d="M86.1501536,30.4776078 C85.9371341,30.4776078 85.7638256,30.303671 85.7638256,30.0898792 L85.7638256,12.2089647 C85.7638256,11.9954368 85.9371341,11.8212361 86.1501536,11.8212361 C86.3631731,11.8212361 86.5364815,11.9954368 86.5364815,12.2089647 L86.5364815,30.0898792 C86.5364815,30.303671 86.3631731,30.4776078 86.1501536,30.4776078" id="Fill-9" fill="#FEFEFE"></path>
                        <path d="M86.1501536,11.5574011 C85.7922282,11.5574011 85.5008386,11.8495833 85.5008386,12.2090703 L85.5008386,30.0899848 C85.5008386,30.4492078 85.7922282,30.7416539 86.1501536,30.7416539 C86.5080789,30.7416539 86.7994685,30.4492078 86.7994685,30.0899848 L86.7994685,12.2090703 C86.7994685,11.8495833 86.5080789,11.5574011 86.1501536,11.5574011 M86.1501536,12.0852822 C86.2185302,12.0852822 86.2734945,12.1407097 86.2734945,12.2090703 L86.2734945,30.0899848 C86.2734945,30.1583454 86.2185302,30.2137729 86.1501536,30.2137729 C86.0820399,30.2137729 86.0268127,30.1583454 86.0268127,30.0899848 L86.0268127,12.2090703 C86.0268127,12.1407097 86.0820399,12.0852822 86.1501536,12.0852822" id="Fill-11" fill="#FEFEFE"></path>
                        <path d="M71.5804627,30.4776078 C71.3674432,30.4776078 71.1941347,30.303671 71.1941347,30.0898792 L71.1941347,12.2089647 C71.1941347,11.9954368 71.3674432,11.8212361 71.5804627,11.8212361 C71.7934821,11.8212361 71.9667906,11.9954368 71.9667906,12.2089647 L71.9667906,30.0898792 C71.9667906,30.303671 71.7934821,30.4776078 71.5804627,30.4776078" id="Fill-13" fill="#FEFEFE"></path>
                        <path d="M71.5804627,11.5574011 C71.2225373,11.5574011 70.9311477,11.8495833 70.9311477,12.2090703 L70.9311477,30.0899848 C70.9311477,30.4492078 71.2225373,30.7416539 71.5804627,30.7416539 C71.938388,30.7416539 72.2297776,30.4492078 72.2297776,30.0899848 L72.2297776,12.2090703 C72.2297776,11.8495833 71.938388,11.5574011 71.5804627,11.5574011 M71.5804627,12.0852822 C71.6485763,12.0852822 71.7038036,12.1407097 71.7038036,12.2090703 L71.7038036,30.0899848 C71.7038036,30.1583454 71.6485763,30.2137729 71.5804627,30.2137729 C71.512349,30.2137729 71.4571218,30.1583454 71.4571218,30.0899848 L71.4571218,12.2090703 C71.4571218,12.1407097 71.512349,12.0852822 71.5804627,12.0852822" id="Fill-15" fill="#FEFEFE"></path>
                        <path d="M57.0104825,30.4776078 C56.797463,30.4776078 56.6241545,30.303671 56.6241545,30.0898792 L56.6241545,12.2089647 C56.6241545,11.9954368 56.797463,11.8212361 57.0104825,11.8212361 C57.2235019,11.8212361 57.3968104,11.9954368 57.3968104,12.2089647 L57.3968104,30.0898792 C57.3968104,30.303671 57.2235019,30.4776078 57.0104825,30.4776078" id="Fill-17" fill="#FEFEFE"></path>
                        <path d="M57.0104825,11.5574011 C56.6525571,11.5574011 56.3611675,11.8495833 56.3611675,12.2090703 L56.3611675,30.0899848 C56.3611675,30.4492078 56.6525571,30.7416539 57.0104825,30.7416539 C57.3684078,30.7416539 57.6597974,30.4492078 57.6597974,30.0899848 L57.6597974,12.2090703 C57.6597974,11.8495833 57.3684078,11.5574011 57.0104825,11.5574011 M57.0104825,12.0852822 C57.0785961,12.0852822 57.1338234,12.1407097 57.1338234,12.2090703 L57.1338234,30.0899848 C57.1338234,30.1583454 57.0785961,30.2137729 57.0104825,30.2137729 C56.9423688,30.2137729 56.8871416,30.1583454 56.8871416,30.0899848 L56.8871416,12.2090703 C56.8871416,12.1407097 56.9423688,12.0852822 57.0104825,12.0852822" id="Fill-19" fill="#FEFEFE"></path>
                        <path d="M71.5804627,59.4796297 C71.3674432,59.4796297 71.1941347,59.3056929 71.1941347,59.0919011 L71.1941347,41.2109866 C71.1941347,40.9974587 71.3674432,40.823258 71.5804627,40.823258 C71.7934821,40.823258 71.9667906,40.9974587 71.9667906,41.2109866 L71.9667906,59.0919011 C71.9667906,59.3056929 71.7934821,59.4796297 71.5804627,59.4796297" id="Fill-21" fill="#FEFEFE"></path>
                        <path d="M71.5804627,40.559423 C71.2225373,40.559423 70.9311477,40.8516052 70.9311477,41.2110922 L70.9311477,59.0920067 C70.9311477,59.4512297 71.2225373,59.7436758 71.5804627,59.7436758 C71.938388,59.7436758 72.2297776,59.4512297 72.2297776,59.0920067 L72.2297776,41.2110922 C72.2297776,40.8516052 71.938388,40.559423 71.5804627,40.559423 M71.5804627,41.0873041 C71.6485763,41.0873041 71.7038036,41.1424677 71.7038036,41.2110922 L71.7038036,59.0920067 C71.7038036,59.1603673 71.6485763,59.2157948 71.5804627,59.2157948 C71.512349,59.2157948 71.4571218,59.1603673 71.4571218,59.0920067 L71.4571218,41.2110922 C71.4571218,41.1424677 71.512349,41.0873041 71.5804627,41.0873041" id="Fill-23" fill="#FEFEFE"></path>
                        <path d="M57.0104825,59.4796297 C56.797463,59.4796297 56.6241545,59.3056929 56.6241545,59.0919011 L56.6241545,41.2109866 C56.6241545,40.9974587 56.797463,40.823258 57.0104825,40.823258 C57.2235019,40.823258 57.3968104,40.9974587 57.3968104,41.2109866 L57.3968104,59.0919011 C57.3968104,59.3056929 57.2235019,59.4796297 57.0104825,59.4796297" id="Fill-25" fill="#FEFEFE"></path>
                        <path d="M57.0104825,40.559423 C56.6525571,40.559423 56.3611675,40.8516052 56.3611675,41.2110922 L56.3611675,59.0920067 C56.3611675,59.4512297 56.6525571,59.7436758 57.0104825,59.7436758 C57.3684078,59.7436758 57.6597974,59.4512297 57.6597974,59.0920067 L57.6597974,41.2110922 C57.6597974,40.8516052 57.3684078,40.559423 57.0104825,40.559423 M57.0104825,41.0873041 C57.0785961,41.0873041 57.1338234,41.1424677 57.1338234,41.2110922 L57.1338234,59.0920067 C57.1338234,59.1603673 57.0785961,59.2157948 57.0104825,59.2157948 C56.9423688,59.2157948 56.8871416,59.1603673 56.8871416,59.0920067 L56.8871416,41.2110922 C56.8871416,41.1424677 56.9423688,41.0873041 57.0104825,41.0873041" id="Fill-27" fill="#FEFEFE"></path>
                        <path d="M71.5804627,37.4063104 L73.3298523,35.6505781 L71.5804627,33.8948457 L69.8310731,35.6505781 L71.5804627,37.4063104 Z M71.5804627,38.2385149 C71.4105731,38.2385149 71.2512029,38.1722658 71.1312808,38.0519089 L69.1875438,36.1011245 C69.0678847,35.9812955 69.001875,35.8210836 69.001875,35.6505781 C69.001875,35.4800725 69.0676218,35.3201245 69.1875438,35.2000316 L71.1312808,33.2489833 C71.2506769,33.1288903 71.4103101,33.0623773 71.5804627,33.0623773 C71.7503523,33.0623773 71.9099854,33.1286264 72.0296445,33.2492472 L73.9731185,35.1997677 C74.0930406,35.3201245 74.1590503,35.4800725 74.1590503,35.6505781 C74.1590503,35.8208197 74.0930406,35.9810316 73.9731185,36.1013885 L72.0296445,38.0519089 C71.9097224,38.1722658 71.7503523,38.2385149 71.5804627,38.2385149 L71.5804627,38.2385149 Z" id="Fill-29" fill="#FEFEFE"></path>
                        <path d="M70.2029893,35.6504725 L71.5805153,34.268216 L72.9577782,35.6504725 L71.5805153,37.032729 L70.2029893,35.6504725 Z M71.5805153,32.7983312 C71.3404081,32.7983312 71.1147653,32.8922941 70.9451386,33.0625357 L69.0016646,35.0130561 C68.832301,35.1830338 68.7389406,35.4097587 68.7389406,35.6504725 C68.7389406,35.8911862 68.832301,36.1176472 69.0016646,36.2878888 L70.9454016,38.2386732 C71.1147653,38.4086509 71.3404081,38.5026138 71.5805153,38.5026138 C71.8203594,38.5026138 72.0460023,38.4086509 72.2156289,38.2384093 L74.1591029,36.2878888 C74.5094016,35.9363201 74.5094016,35.3646249 74.1591029,35.0130561 L72.2156289,33.0622717 C72.0460023,32.8920301 71.8203594,32.7983312 71.5805153,32.7983312 L71.5805153,32.7983312 Z M71.5805153,37.7271565 C71.6139146,37.7271565 71.6454731,37.7139595 71.6691419,37.6904688 L73.6128789,35.7396844 C73.6373367,35.714874 73.6494341,35.6826732 73.6494341,35.6504725 C73.6494341,35.6182717 73.6373367,35.5858071 73.6128789,35.5612606 L71.6691419,33.6104762 C71.6454731,33.5867216 71.6139146,33.5737885 71.5805153,33.5737885 C71.5468529,33.5737885 71.5152945,33.5867216 71.4916256,33.6104762 L69.5478886,35.5612606 C69.4989731,35.6106175 69.4989731,35.6903275 69.5478886,35.7396844 L71.4916256,37.6904688 C71.5152945,37.7139595 71.5468529,37.7271565 71.5805153,37.7271565 L71.5805153,37.7271565 Z M71.5805153,33.3262123 C71.6799244,33.3262123 71.7732847,33.3650115 71.8435023,33.4354836 L73.7872393,35.386268 C73.9324081,35.5319632 73.9324081,35.7689818 73.7872393,35.914413 L71.8435023,37.8654613 C71.7709179,37.938045 71.6757166,37.9747327 71.5805153,37.9747327 C71.485051,37.9747327 71.3898497,37.938045 71.3172653,37.8654613 L69.3735282,35.914413 C69.3009438,35.8418294 69.2649146,35.746019 69.2649146,35.6504725 C69.2649146,35.554926 69.3009438,35.4591156 69.3735282,35.386268 L71.3172653,33.4354836 C71.3874828,33.3650115 71.4811062,33.3262123 71.5805153,33.3262123 L71.5805153,33.3262123 Z" id="Fill-31" fill="#FEFEFE"></path>
                        <path d="M86.1501536,59.4796297 C85.9371341,59.4796297 85.7638256,59.3056929 85.7638256,59.0919011 L85.7638256,41.2109866 C85.7638256,40.9974587 85.9371341,40.823258 86.1501536,40.823258 C86.3631731,40.823258 86.5364815,40.9974587 86.5364815,41.2109866 L86.5364815,59.0919011 C86.5364815,59.3056929 86.3631731,59.4796297 86.1501536,59.4796297" id="Fill-33" fill="#FEFEFE"></path>
                        <path d="M86.1501536,40.559423 C85.7924912,40.559423 85.5008386,40.8516052 85.5008386,41.2110922 L85.5008386,59.0920067 C85.5008386,59.4512297 85.7924912,59.7436758 86.1501536,59.7436758 C86.5080789,59.7436758 86.7994685,59.4512297 86.7994685,59.0920067 L86.7994685,41.2110922 C86.7994685,40.8516052 86.5080789,40.559423 86.1501536,40.559423 M86.1501536,41.0873041 C86.2185302,41.0873041 86.2734945,41.1424677 86.2734945,41.2110922 L86.2734945,59.0920067 C86.2734945,59.1603673 86.2185302,59.2157948 86.1501536,59.2157948 C86.0820399,59.2157948 86.0268127,59.1603673 86.0268127,59.0920067 L86.0268127,41.2110922 C86.0268127,41.1424677 86.0820399,41.0873041 86.1501536,41.0873041" id="Fill-35" fill="#FEFEFE"></path>
                        <path d="M86.1501536,37.4060465 L87.8995432,35.6505781 L86.1501536,33.8948457 L84.400764,35.6505781 L86.1501536,37.4060465 Z M86.1501536,38.2385149 C85.9805269,38.2385149 85.8211568,38.1722658 85.7012347,38.0519089 L83.7574977,36.1011245 C83.6378386,35.9812955 83.5715659,35.8210836 83.5715659,35.6505781 C83.5715659,35.4800725 83.6375756,35.3201245 83.7574977,35.1997677 L85.7012347,33.2489833 C85.8206308,33.1288903 85.980264,33.0623773 86.1501536,33.0623773 C86.3203062,33.0623773 86.4799393,33.1288903 86.5995984,33.2492472 L88.5430724,35.1997677 C88.6629945,35.3201245 88.7290042,35.4800725 88.7290042,35.6505781 C88.7290042,35.8208197 88.6629945,35.9810316 88.5428094,36.1013885 L86.5993354,38.0519089 C86.4794133,38.1722658 86.3200432,38.2385149 86.1501536,38.2385149 L86.1501536,38.2385149 Z" id="Fill-37" fill="#FEFEFE"></path>
                        <path d="M84.7728117,35.6504725 L86.1503377,34.268216 L87.5278636,35.6504725 L86.1500747,37.032729 L84.7728117,35.6504725 Z M86.1500747,32.7983312 C85.9102305,32.7983312 85.6845877,32.8922941 85.514961,33.0625357 L83.57175,35.0130561 C83.4021234,35.1830338 83.308763,35.4097587 83.308763,35.6504725 C83.308763,35.8911862 83.4021234,36.1176472 83.57175,36.2878888 L85.515224,38.2386732 C85.6845877,38.4086509 85.9102305,38.5026138 86.1500747,38.5026138 C86.3901818,38.5026138 86.6160877,38.4086509 86.7854513,38.2384093 L88.7289253,36.2878888 C89.079224,35.9363201 89.079224,35.3646249 88.7289253,35.0130561 L86.7854513,33.0622717 C86.6158247,32.8920301 86.3901818,32.7983312 86.1500747,32.7983312 L86.1500747,32.7983312 Z M86.1500747,37.7271565 C86.183737,37.7271565 86.2152955,37.7139595 86.2389643,37.6904688 L88.1827013,35.7396844 C88.2074221,35.714874 88.2192565,35.6826732 88.2192565,35.6504725 C88.2192565,35.6182717 88.2074221,35.5858071 88.1827013,35.5612606 L86.2389643,33.6104762 C86.2152955,33.5867216 86.183737,33.5737885 86.1500747,33.5737885 C86.1166753,33.5737885 86.0851169,33.5867216 86.0614481,33.6104762 L84.117711,35.5612606 C84.0687955,35.6106175 84.0687955,35.6903275 84.117711,35.7396844 L86.0614481,37.6904688 C86.0851169,37.7139595 86.1166753,37.7271565 86.1500747,37.7271565 L86.1500747,37.7271565 Z M86.1500747,33.3262123 C86.2497468,33.3262123 86.3433701,33.3650115 86.4133247,33.4354836 L88.3570617,35.386268 C88.5022305,35.5319632 88.5022305,35.7689818 88.3570617,35.914413 L86.4133247,37.8654613 C86.3410032,37.938045 86.2458019,37.9747327 86.1500747,37.9747327 C86.0548734,37.9747327 85.9596721,37.938045 85.8870877,37.8654613 L83.9436136,35.914413 C83.8707662,35.8418294 83.834737,35.746019 83.834737,35.6504725 C83.834737,35.554926 83.8707662,35.4591156 83.9436136,35.386268 L85.8870877,33.4354836 C85.9573052,33.3650115 86.0509286,33.3262123 86.1500747,33.3262123 L86.1500747,33.3262123 Z" id="Fill-39" fill="#FEFEFE"></path>
                        <path d="M100.720265,59.4796297 C100.507246,59.4796297 100.333937,59.3056929 100.333937,59.0919011 L100.333937,41.2109866 C100.333937,40.9974587 100.507246,40.823258 100.720265,40.823258 C100.933285,40.823258 101.106593,40.9974587 101.106593,41.2109866 L101.106593,59.0919011 C101.106593,59.3056929 100.933285,59.4796297 100.720265,59.4796297" id="Fill-41" fill="#FEFEFE"></path>
                        <path d="M100.720265,40.559423 C100.36234,40.559423 100.07095,40.8516052 100.07095,41.2110922 L100.07095,59.0920067 C100.07095,59.4512297 100.36234,59.7436758 100.720265,59.7436758 C101.078191,59.7436758 101.36958,59.4512297 101.36958,59.0920067 L101.36958,41.2110922 C101.36958,40.8516052 101.078191,40.559423 100.720265,40.559423 M100.720265,41.0873041 C100.788379,41.0873041 100.843606,41.1424677 100.843606,41.2110922 L100.843606,59.0920067 C100.843606,59.1603673 100.788379,59.2157948 100.720265,59.2157948 C100.651889,59.2157948 100.596924,59.1603673 100.596924,59.0920067 L100.596924,41.2110922 C100.596924,41.1424677 100.651889,41.0873041 100.720265,41.0873041" id="Fill-43" fill="#FEFEFE"></path>
                        <path d="M100.720265,37.4060465 L102.469655,35.6505781 L100.720265,33.8948457 L98.9708756,35.6505781 L100.720265,37.4060465 Z M100.720002,38.2385149 C100.550376,38.2385149 100.391006,38.1722658 100.271083,38.0519089 L98.3273464,36.1011245 C98.2076873,35.9812955 98.1414146,35.8210836 98.1414146,35.6505781 C98.1414146,35.4800725 98.2074244,35.3201245 98.3273464,35.1997677 L100.271083,33.2489833 C100.39048,33.1288903 100.550113,33.0623773 100.720265,33.0623773 C100.890155,33.0623773 101.049788,33.1288903 101.169447,33.2492472 L103.112921,35.1997677 C103.232843,35.3201245 103.298853,35.4800725 103.298853,35.6505781 C103.298853,35.8208197 103.232843,35.9810316 103.112658,36.1013885 L101.169184,38.0519089 C101.049262,38.1722658 100.889892,38.2385149 100.720002,38.2385149 L100.720002,38.2385149 Z" id="Fill-45" fill="#FEFEFE"></path>
                        <path d="M99.3426604,35.6504725 L100.720186,34.268216 L102.097712,35.6504725 L100.720186,37.032729 L99.3426604,35.6504725 Z M100.720186,32.7983312 C100.480079,32.7983312 100.254436,32.8922941 100.08481,33.0625357 L98.1415987,35.0130561 C97.9719721,35.1830338 97.8786117,35.4097587 97.8786117,35.6504725 C97.8786117,35.8911862 97.9719721,36.1176472 98.1415987,36.2878888 L100.085073,38.2386732 C100.254436,38.4086509 100.480079,38.5026138 100.720186,38.5026138 C100.960031,38.5026138 101.185936,38.4086509 101.3553,38.2384093 L103.299037,36.2878888 C103.649073,35.9363201 103.649073,35.3646249 103.299037,35.0130561 L101.3553,33.0622717 C101.185673,32.8920301 100.960031,32.7983312 100.720186,32.7983312 L100.720186,32.7983312 Z M100.720186,37.7271565 C100.753586,37.7271565 100.785144,37.7139595 100.808813,37.6904688 L102.752813,35.7396844 C102.777271,35.714874 102.789105,35.6826732 102.789105,35.6504725 C102.789105,35.6182717 102.777271,35.5858071 102.752813,35.5612606 L100.808813,33.6104762 C100.785144,33.5867216 100.753586,33.5737885 100.720186,33.5737885 C100.686524,33.5737885 100.654966,33.5867216 100.631297,33.6104762 L98.6878227,35.5612606 C98.6386442,35.6106175 98.6386442,35.6903275 98.6878227,35.7396844 L100.631297,37.6904688 C100.654966,37.7139595 100.686524,37.7271565 100.720186,37.7271565 L100.720186,37.7271565 Z M100.720186,33.3262123 C100.819595,33.3262123 100.913219,33.3650115 100.983173,33.4354836 L102.92691,35.386268 C103.072079,35.5319632 103.072079,35.7689818 102.92691,35.914413 L100.983173,37.8654613 C100.910852,37.938045 100.815651,37.9747327 100.720186,37.9747327 C100.624985,37.9747327 100.529784,37.938045 100.456936,37.8654613 L98.5134623,35.914413 C98.4406149,35.8418294 98.4045857,35.746019 98.4045857,35.6504725 C98.4045857,35.554926 98.4406149,35.4591156 98.5134623,35.386268 L100.456936,33.4354836 C100.527154,33.3650115 100.620777,33.3262123 100.720186,33.3262123 L100.720186,33.3262123 Z" id="Fill-47" fill="#FEFEFE"></path>
                        <path d="M57.0104825,37.4063104 L58.7598721,35.6505781 L57.0104825,33.8948457 L55.2610929,35.6505781 L57.0104825,37.4063104 Z M57.0104825,38.2385149 C56.8405929,38.2385149 56.6812227,38.1722658 56.5613006,38.0519089 L54.6178266,36.1011245 C54.4979045,35.9810316 54.4318948,35.8208197 54.4318948,35.6505781 C54.4318948,35.4803364 54.4979045,35.3203885 54.6175636,35.2000316 L56.5613006,33.2489833 C56.6809597,33.1286264 56.8405929,33.0623773 57.0104825,33.0623773 C57.1803721,33.0623773 57.3400052,33.1286264 57.4596643,33.2492472 L59.4034013,35.1997677 C59.5230604,35.3201245 59.5890701,35.4800725 59.5890701,35.6505781 C59.5890701,35.8208197 59.5230604,35.9810316 59.4031383,36.1011245 L57.4596643,38.0519089 C57.3397422,38.1722658 57.1803721,38.2385149 57.0104825,38.2385149 L57.0104825,38.2385149 Z" id="Fill-49" fill="#FEFEFE"></path>
                        <path d="M55.6331406,35.6504725 L57.0106666,34.268216 L58.3879295,35.6504725 L57.0104036,37.032729 L55.6331406,35.6504725 Z M57.0104036,32.7983312 C56.7705594,32.7983312 56.5449166,32.8922941 56.3752899,33.0625357 L54.4318159,35.0130561 C54.2621893,35.1830338 54.1688289,35.4097587 54.1688289,35.6504725 C54.1688289,35.8911862 54.2621893,36.1176472 54.4318159,36.2878888 L56.3755529,38.2386732 C56.5449166,38.4086509 56.7705594,38.5026138 57.0104036,38.5026138 C57.2505107,38.5026138 57.4761536,38.4086509 57.6457802,38.2384093 L59.5892542,36.2878888 C59.9395529,35.9363201 59.9395529,35.3646249 59.5892542,35.0130561 L57.6455172,33.0622717 C57.4758906,32.8920301 57.2505107,32.7983312 57.0104036,32.7983312 L57.0104036,32.7983312 Z M57.0104036,37.7271565 C57.0440659,37.7271565 57.0756244,37.7139595 57.0992932,37.6904688 L59.0430302,35.7396844 C59.067488,35.714874 59.0795854,35.6826732 59.0795854,35.6504725 C59.0795854,35.6182717 59.067488,35.5858071 59.0430302,35.5612606 L57.0992932,33.6104762 C57.0756244,33.5867216 57.0440659,33.5737885 57.0104036,33.5737885 C56.9770042,33.5737885 56.9454458,33.5867216 56.9217769,33.6104762 L54.9780399,35.5612606 C54.9291244,35.6106175 54.9291244,35.6903275 54.9780399,35.7396844 L56.9217769,37.6904688 C56.9454458,37.7139595 56.9770042,37.7271565 57.0104036,37.7271565 L57.0104036,37.7271565 Z M57.0104036,33.3262123 C57.1098127,33.3262123 57.203436,33.3650115 57.2736536,33.4354836 L59.2173906,35.386268 C59.3622964,35.5319632 59.3622964,35.7689818 59.2173906,35.914413 L57.2736536,37.8654613 C57.2010692,37.938045 57.1058679,37.9747327 57.0104036,37.9747327 C56.9152023,37.9747327 56.820001,37.938045 56.7474166,37.8654613 L54.8036795,35.914413 C54.7310951,35.8418294 54.6948029,35.746019 54.6948029,35.6504725 C54.6948029,35.554926 54.7310951,35.4591156 54.8036795,35.386268 L56.7474166,33.4354836 C56.8176341,33.3650115 56.9109945,33.3262123 57.0104036,33.3262123 L57.0104036,33.3262123 Z" id="Fill-51" fill="#FEFEFE"></path>
                        <path d="M122.891806,1.03921301 C122.447621,1.03921301 122.086014,1.40213123 122.086014,1.84792677 L122.086014,8.64571487 C122.086014,9.09177435 122.447621,9.45469257 122.891806,9.45469257 L150.26928,9.45469257 C150.713465,9.45469257 151.075072,9.09177435 151.075072,8.64571487 L151.075072,1.84792677 C151.075072,1.40213123 150.713465,1.03921301 150.26928,1.03921301 L122.891806,1.03921301 Z M122.891806,10.2298859 C122.021319,10.2298859 121.313358,9.51935799 121.313358,8.64571487 L121.313358,1.84792677 C121.313358,0.974547584 122.021319,0.263755762 122.891806,0.263755762 L150.26928,0.263755762 C151.139504,0.263755762 151.847728,0.974547584 151.847728,1.84792677 L151.847728,8.64571487 C151.847728,9.51935799 151.139504,10.2298859 150.26928,10.2298859 L122.891806,10.2298859 Z" id="Fill-53" fill="#FEFEFE"></path>
                        <path d="M122.891806,9.19069926 C122.592264,9.19069926 122.349001,8.94602639 122.349001,8.64592602 L122.349001,1.84813792 C122.349001,1.54750967 122.592264,1.30310074 122.891806,1.30310074 L150.26928,1.30310074 C150.568559,1.30310074 150.812085,1.54750967 150.812085,1.84813792 L150.812085,8.64592602 C150.812085,8.94602639 150.568559,9.19069926 150.26928,9.19069926 L122.891806,9.19069926 Z M150.26928,2.6394052e-05 L122.891806,2.6394052e-05 C121.876413,2.6394052e-05 121.050371,0.829063569 121.050371,1.84813792 L121.050371,8.64592602 C121.050371,9.66473643 121.876413,10.4937736 122.891806,10.4937736 L150.26928,10.4937736 C151.284673,10.4937736 152.110715,9.66473643 152.110715,8.64592602 L152.110715,1.84813792 C152.110715,0.829063569 151.284673,2.6394052e-05 150.26928,2.6394052e-05 L150.26928,2.6394052e-05 Z M122.891806,9.7185803 L150.26928,9.7185803 C150.858634,9.7185803 151.338059,9.23741673 151.338059,8.64592602 L151.338059,1.84813792 C151.338059,1.25664721 150.858634,0.775219703 150.26928,0.775219703 L122.891806,0.775219703 C122.302452,0.775219703 121.823027,1.25664721 121.823027,1.84813792 L121.823027,8.64592602 C121.823027,9.23741673 122.302452,9.7185803 122.891806,9.7185803 L122.891806,9.7185803 Z M150.26928,0.527907435 C150.994335,0.527907435 151.584741,1.12018996 151.584741,1.84813792 L151.584741,8.64592602 C151.584741,9.37361004 150.994335,9.96615651 150.26928,9.96615651 L122.891806,9.96615651 C122.166225,9.96615651 121.576345,9.37361004 121.576345,8.64592602 L121.576345,1.84813792 C121.576345,1.12018996 122.166225,0.527907435 122.891806,0.527907435 L150.26928,0.527907435 L150.26928,0.527907435 Z" id="Fill-55" fill="#FFAC00"></path>
                        <path d="M122.891806,61.4470688 C122.447621,61.4470688 122.086014,61.809723 122.086014,62.2555186 L122.086014,69.0533067 C122.086014,69.4993662 122.447621,69.8622844 122.891806,69.8622844 L150.26928,69.8622844 C150.713465,69.8622844 151.075072,69.4993662 151.075072,69.0533067 L151.075072,62.2555186 C151.075072,61.809723 150.713465,61.4470688 150.26928,61.4470688 L122.891806,61.4470688 Z M122.891806,70.6374777 C122.021319,70.6374777 121.313358,69.9269498 121.313358,69.0533067 L121.313358,62.2555186 C121.313358,61.3824033 122.021319,60.6716115 122.891806,60.6716115 L150.26928,60.6716115 C151.139504,60.6716115 151.847728,61.3824033 151.847728,62.2555186 L151.847728,69.0533067 C151.847728,69.9269498 151.139504,70.6374777 150.26928,70.6374777 L122.891806,70.6374777 Z" id="Fill-57" fill="#FEFEFE"></path>
                        <path d="M122.891806,69.5982911 C122.592264,69.5982911 122.349001,69.3538822 122.349001,69.0535178 L122.349001,62.2557297 C122.349001,61.9553654 122.592264,61.7109565 122.891806,61.7109565 L150.26928,61.7109565 C150.568559,61.7109565 150.812085,61.9553654 150.812085,62.2557297 L150.812085,69.0535178 C150.812085,69.3538822 150.568559,69.5982911 150.26928,69.5982911 L122.891806,69.5982911 Z M150.26928,60.4078822 L122.891806,60.4078822 C121.876413,60.4078822 121.050371,61.2366554 121.050371,62.2557297 L121.050371,69.0535178 C121.050371,70.0725922 121.876413,70.9013654 122.891806,70.9013654 L150.26928,70.9013654 C151.284673,70.9013654 152.110715,70.0725922 152.110715,69.0535178 L152.110715,62.2557297 C152.110715,61.2366554 151.284673,60.4078822 150.26928,60.4078822 L150.26928,60.4078822 Z M122.891806,70.1261721 L150.26928,70.1261721 C150.858634,70.1261721 151.338059,69.6450086 151.338059,69.0535178 L151.338059,62.2557297 C151.338059,61.664239 150.858634,61.1830755 150.26928,61.1830755 L122.891806,61.1830755 C122.302452,61.1830755 121.823027,61.664239 121.823027,62.2557297 L121.823027,69.0535178 C121.823027,69.6450086 122.302452,70.1261721 122.891806,70.1261721 L122.891806,70.1261721 Z M150.26928,60.9357632 C150.994335,60.9357632 151.584741,61.5277818 151.584741,62.2557297 L151.584741,69.0535178 C151.584741,69.7814658 150.994335,70.3737483 150.26928,70.3737483 L122.891806,70.3737483 C122.166225,70.3737483 121.576345,69.7814658 121.576345,69.0535178 L121.576345,62.2557297 C121.576345,61.5277818 122.166225,60.9357632 122.891806,60.9357632 L150.26928,60.9357632 L150.26928,60.9357632 Z" id="Fill-59" fill="#FFAC00"></path>
                        <path d="M1.84151396,1.03921301 C1.39706591,1.03921301 1.03545877,1.40213123 1.03545877,1.84792677 L1.03545877,8.64571487 C1.03545877,9.09177435 1.39706591,9.45469257 1.84151396,9.45469257 L29.218988,9.45469257 C29.663436,9.45469257 30.0247802,9.09177435 30.0247802,8.64571487 L30.0247802,1.84792677 C30.0247802,1.40213123 29.663436,1.03921301 29.218988,1.03921301 L1.84151396,1.03921301 Z M1.84151396,10.2298859 C0.971026948,10.2298859 0.263065909,9.51935799 0.263065909,8.64571487 L0.263065909,1.84792677 C0.263065909,0.974547584 0.971026948,0.263755762 1.84151396,0.263755762 L29.218988,0.263755762 C30.089212,0.263755762 30.797436,0.974547584 30.797436,1.84792677 L30.797436,8.64571487 C30.797436,9.51935799 30.089212,10.2298859 29.218988,10.2298859 L1.84151396,10.2298859 Z" id="Fill-61" fill="#FEFEFE"></path>
                        <path d="M1.84151396,9.19069926 C1.54197175,9.19069926 1.29844578,8.94602639 1.29844578,8.64592602 L1.29844578,1.84813792 C1.29844578,1.54750967 1.54197175,1.30310074 1.84151396,1.30310074 L29.218988,1.30310074 C29.5182672,1.30310074 29.7617932,1.54750967 29.7617932,1.84813792 L29.7617932,8.64592602 C29.7617932,8.94602639 29.5182672,9.19069926 29.218988,9.19069926 L1.84151396,9.19069926 Z M29.218988,2.6394052e-05 L1.84151396,2.6394052e-05 C0.826121104,2.6394052e-05 7.88961039e-05,0.829063569 7.88961039e-05,1.84813792 L7.88961039e-05,8.64592602 C7.88961039e-05,9.66473643 0.826121104,10.4937736 1.84151396,10.4937736 L29.218988,10.4937736 C30.2341179,10.4937736 31.0604231,9.66473643 31.0604231,8.64592602 L31.0604231,1.84813792 C31.0604231,0.829063569 30.2341179,2.6394052e-05 29.218988,2.6394052e-05 L29.218988,2.6394052e-05 Z M1.84151396,9.7185803 L29.218988,9.7185803 C29.8083419,9.7185803 30.2877672,9.23741673 30.2877672,8.64592602 L30.2877672,1.84813792 C30.2877672,1.25664721 29.8083419,0.775219703 29.218988,0.775219703 L1.84151396,0.775219703 C1.25216006,0.775219703 0.772471753,1.25664721 0.772471753,1.84813792 L0.772471753,8.64592602 C0.772471753,9.23741673 1.25216006,9.7185803 1.84151396,9.7185803 L1.84151396,9.7185803 Z M29.218988,0.527907435 C29.9443062,0.527907435 30.534449,1.12018996 30.534449,1.84813792 L30.534449,8.64592602 C30.534449,9.37361004 29.9443062,9.96615651 29.218988,9.96615651 L1.84151396,9.96615651 C1.11619578,9.96615651 0.526052922,9.37361004 0.526052922,8.64592602 L0.526052922,1.84813792 C0.526052922,1.12018996 1.11619578,0.527907435 1.84151396,0.527907435 L29.218988,0.527907435 L29.218988,0.527907435 Z" id="Fill-63" fill="#FFAC00"></path>
                        <path d="M1.84151396,61.4932056 C1.39706591,61.4932056 1.03545877,61.8561238 1.03545877,62.3019193 L1.03545877,69.0997074 C1.03545877,69.5457669 1.39706591,69.9084212 1.84151396,69.9084212 L29.218988,69.9084212 C29.663436,69.9084212 30.0247802,69.5457669 30.0247802,69.0997074 L30.0247802,62.3019193 C30.0247802,61.8561238 29.663436,61.4932056 29.218988,61.4932056 L1.84151396,61.4932056 Z M1.84151396,70.6836145 C0.971026948,70.6836145 0.263065909,69.9730866 0.263065909,69.0997074 L0.263065909,62.3019193 C0.263065909,61.4285401 0.971026948,60.7177483 1.84151396,60.7177483 L29.218988,60.7177483 C30.089212,60.7177483 30.797436,61.4285401 30.797436,62.3019193 L30.797436,69.0997074 C30.797436,69.9730866 30.089212,70.6836145 29.218988,70.6836145 L1.84151396,70.6836145 Z" id="Fill-65" fill="#FEFEFE"></path>
                        <path d="M1.84151396,69.6444279 C1.54197175,69.6444279 1.29844578,69.400019 1.29844578,69.0999186 L1.29844578,62.3021305 C1.29844578,62.0015022 1.54197175,61.7570933 1.84151396,61.7570933 L29.218988,61.7570933 C29.5182672,61.7570933 29.7617932,62.0015022 29.7617932,62.3021305 L29.7617932,69.0999186 C29.7617932,69.400019 29.5182672,69.6444279 29.218988,69.6444279 L1.84151396,69.6444279 Z M29.218988,60.454019 L1.84151396,60.454019 C0.826121104,60.454019 7.88961039e-05,61.2827922 7.88961039e-05,62.3021305 L7.88961039e-05,69.0999186 C7.88961039e-05,70.118729 0.826121104,70.9475022 1.84151396,70.9475022 L29.218988,70.9475022 C30.2341179,70.9475022 31.0604231,70.118729 31.0604231,69.0999186 L31.0604231,62.3021305 C31.0604231,61.2827922 30.2341179,60.454019 29.218988,60.454019 L29.218988,60.454019 Z M1.84151396,70.1723089 L29.218988,70.1723089 C29.8083419,70.1723089 30.2877672,69.6911454 30.2877672,69.0999186 L30.2877672,62.3021305 C30.2877672,61.7103758 29.8083419,61.2292123 29.218988,61.2292123 L1.84151396,61.2292123 C1.25216006,61.2292123 0.772471753,61.7103758 0.772471753,62.3021305 L0.772471753,69.0999186 C0.772471753,69.6911454 1.25216006,70.1723089 1.84151396,70.1723089 L1.84151396,70.1723089 Z M29.218988,60.9819 C29.9443062,60.9819 30.534449,61.5741825 30.534449,62.3021305 L30.534449,69.0999186 C30.534449,69.8276026 29.9443062,70.4198851 29.218988,70.4198851 L1.84151396,70.4198851 C1.11619578,70.4198851 0.526052922,69.8276026 0.526052922,69.0999186 L0.526052922,62.3021305 C0.526052922,61.5741825 1.11619578,60.9819 1.84151396,60.9819 L29.218988,60.9819 L29.218988,60.9819 Z" id="Fill-67" fill="#FFAC00"></path>
                        <path d="M131.483066,21.7309621 C131.270046,21.7309621 131.096738,21.5570253 131.096738,21.3432335 L131.096738,15.8503673 C131.096738,13.3616721 133.114111,11.3369844 135.593553,11.3369844 L136.386985,11.3369844 C138.866163,11.3369844 140.883537,13.3616721 140.883537,15.8503673 L140.883537,21.2416164 C140.883537,21.4554082 140.710228,21.629345 140.497209,21.629345 C140.284452,21.629345 140.111144,21.4554082 140.111144,21.2416164 L140.111144,15.8503673 C140.111144,13.7892558 138.440387,12.1124416 136.386985,12.1124416 L135.593553,12.1124416 C133.539887,12.1124416 131.869394,13.7892558 131.869394,15.8503673 L131.869394,21.3432335 C131.869394,21.5570253 131.696085,21.7309621 131.483066,21.7309621" id="Fill-69" fill="#FEFEFE"></path>
                        <path d="M136.386853,11.0730703 L135.593421,11.0730703 C132.969074,11.0730703 130.833882,13.2160033 130.833882,15.8503937 L130.833882,21.3432599 C130.833882,21.7024829 131.125009,21.994929 131.482934,21.994929 C131.841123,21.994929 132.132249,21.7024829 132.132249,21.3432599 L132.132249,15.8503937 C132.132249,13.9347134 133.685188,12.3761446 135.593421,12.3761446 L136.386853,12.3761446 C138.295613,12.3761446 139.848025,13.9347134 139.848025,15.8503937 L139.848025,21.2416428 C139.848025,21.6011297 140.139415,21.8933119 140.49734,21.8933119 C140.855266,21.8933119 141.146655,21.6011297 141.146655,21.2416428 L141.146655,15.8503937 C141.146655,13.2160033 139.011464,11.0730703 136.386853,11.0730703 M136.386853,11.6009513 C138.721389,11.6009513 140.620681,13.5073937 140.620681,15.8503937 L140.620681,21.2416428 C140.620681,21.3100033 140.565454,21.3654309 140.49734,21.3654309 C140.429227,21.3654309 140.373999,21.3100033 140.373999,21.2416428 L140.373999,15.8503937 C140.373999,13.643587 138.585425,11.8485275 136.386853,11.8485275 L135.593421,11.8485275 C133.395113,11.8485275 131.606275,13.643587 131.606275,15.8503937 L131.606275,21.3432599 C131.606275,21.4116204 131.551048,21.467048 131.482934,21.467048 C131.415084,21.467048 131.359856,21.4116204 131.359856,21.3432599 L131.359856,15.8503937 C131.359856,13.5073937 133.258886,11.6009513 135.593421,11.6009513 L136.386853,11.6009513" id="Fill-71" fill="#FEFEFE"></path>
                        <path d="M137.90392,12.3087606 C137.690901,12.3087606 137.517592,12.1348238 137.517592,11.921032 L137.517592,10.2299651 L134.72467,10.2299651 L134.72467,11.7592364 C134.72467,11.9730283 134.551362,12.1469651 134.338342,12.1469651 C134.125586,12.1469651 133.952277,11.9730283 133.952277,11.7592364 L133.952277,9.84223643 C133.952277,9.62870855 134.125586,9.45477175 134.338342,9.45477175 L137.90392,9.45477175 C138.11694,9.45477175 138.290248,9.62870855 138.290248,9.84223643 L138.290248,11.921032 C138.290248,12.1348238 138.11694,12.3087606 137.90392,12.3087606" id="Fill-73" fill="#FEFEFE"></path>
                        <path d="M137.90392,9.19069926 L134.338342,9.19069926 C133.980417,9.19069926 133.68929,9.48288141 133.68929,9.8423684 L133.68929,11.7591045 C133.68929,12.1185914 133.980417,12.4107736 134.338342,12.4107736 C134.696531,12.4107736 134.987657,12.1185914 134.987657,11.7591045 L134.987657,10.4937736 L137.254605,10.4937736 L137.254605,11.9211639 C137.254605,12.280387 137.545995,12.5725691 137.90392,12.5725691 C138.261845,12.5725691 138.553235,12.280387 138.553235,11.9211639 L138.553235,9.8423684 C138.553235,9.48288141 138.261845,9.19069926 137.90392,9.19069926 M137.90392,9.7185803 C137.972034,9.7185803 138.027261,9.77400781 138.027261,9.8423684 L138.027261,11.9211639 C138.027261,11.9895245 137.972034,12.0446881 137.90392,12.0446881 C137.835806,12.0446881 137.780579,11.9895245 137.780579,11.9211639 L137.780579,9.96615651 L134.461683,9.96615651 L134.461683,11.7591045 C134.461683,11.8274651 134.406456,11.8828926 134.338342,11.8828926 C134.270492,11.8828926 134.215264,11.8274651 134.215264,11.7591045 L134.215264,9.8423684 C134.215264,9.77400781 134.270492,9.7185803 134.338342,9.7185803 L137.90392,9.7185803" id="Fill-75" fill="#FEFEFE"></path>
                        <path d="M135.593527,59.5644074 C133.114085,59.5644074 131.096712,57.5397197 131.096712,55.0512885 L131.096712,50.0860394 C131.096712,49.8722476 131.270283,49.6983108 131.48304,49.6983108 C131.696059,49.6983108 131.869368,49.8722476 131.869368,50.0860394 L131.869368,55.0512885 C131.869368,57.1124 133.539861,58.7889502 135.593527,58.7889502 L136.386958,58.7889502 C138.440361,58.7889502 140.111118,57.1124 140.111118,55.0512885 L140.111118,49.923716 C140.111118,49.7099242 140.284426,49.5359874 140.497182,49.5359874 C140.710202,49.5359874 140.88351,49.7099242 140.88351,49.923716 L140.88351,55.0512885 C140.88351,57.5397197 138.866137,59.5644074 136.386958,59.5644074 L135.593527,59.5644074 Z" id="Fill-77" fill="#FEFEFE"></path>
                        <path d="M140.497314,49.2720204 C140.139389,49.2720204 139.847999,49.5642026 139.847999,49.9236896 L139.847999,55.0512621 C139.847999,56.9666784 138.295587,58.5252472 136.386827,58.5252472 L135.593658,58.5252472 C133.685161,58.5252472 132.132223,56.9666784 132.132223,55.0512621 L132.132223,50.086013 C132.132223,49.72679 131.841096,49.4343439 131.483171,49.4343439 C131.124983,49.4343439 130.833856,49.72679 130.833856,50.086013 L130.833856,55.0512621 C130.833856,57.6853885 132.969048,59.8283216 135.593658,59.8283216 L136.386827,59.8283216 C139.0117,59.8283216 141.146629,57.6853885 141.146629,55.0512621 L141.146629,49.9236896 C141.146629,49.5642026 140.855239,49.2720204 140.497314,49.2720204 M140.497314,49.7999015 C140.565428,49.7999015 140.620655,49.855329 140.620655,49.9236896 L140.620655,55.0512621 C140.620655,57.3942621 138.721363,59.3004405 136.386827,59.3004405 L135.593658,59.3004405 C133.259122,59.3004405 131.35983,57.3942621 131.35983,55.0512621 L131.35983,50.086013 C131.35983,50.0176524 131.415057,49.9622249 131.483171,49.9622249 C131.551022,49.9622249 131.606249,50.0176524 131.606249,50.086013 L131.606249,55.0512621 C131.606249,57.2580688 133.395087,59.0531283 135.593658,59.0531283 L136.386827,59.0531283 C138.585398,59.0531283 140.373973,57.2580688 140.373973,55.0512621 L140.373973,49.9236896 C140.373973,49.855329 140.4292,49.7999015 140.497314,49.7999015" id="Fill-79" fill="#FEFEFE"></path>
                        <path d="M134.338421,61.4470688 C134.125402,61.4470688 133.952093,61.273132 133.952093,61.0593401 L133.952093,59.1423401 C133.952093,58.9285483 134.125402,58.7546115 134.338421,58.7546115 C134.551441,58.7546115 134.724749,58.9285483 134.724749,59.1423401 L134.724749,60.6716115 L137.517671,60.6716115 L137.517671,58.9802807 C137.517671,58.7667528 137.69098,58.592816 137.903999,58.592816 C138.116756,58.592816 138.290064,58.7667528 138.290064,58.9802807 L138.290064,61.0593401 C138.290064,61.273132 138.116756,61.4470688 137.903999,61.4470688 L134.338421,61.4470688 Z" id="Fill-81" fill="#FEFEFE"></path>
                        <path d="M137.90392,58.3287435 C137.545995,58.3287435 137.254605,58.6209257 137.254605,58.9804126 L137.254605,60.407803 L134.987657,60.407803 L134.987657,59.1422082 C134.987657,58.7829851 134.696531,58.490539 134.338342,58.490539 C133.980417,58.490539 133.68929,58.7829851 133.68929,59.1422082 L133.68929,61.0594721 C133.68929,61.4186952 133.980417,61.7108773 134.338342,61.7108773 L137.90392,61.7108773 C138.261845,61.7108773 138.553235,61.4186952 138.553235,61.0594721 L138.553235,58.9804126 C138.553235,58.6209257 138.261845,58.3287435 137.90392,58.3287435 M137.90392,58.8566245 C137.972034,58.8566245 138.027261,58.912052 138.027261,58.9804126 L138.027261,61.0594721 C138.027261,61.1275688 137.972034,61.1829963 137.90392,61.1829963 L134.338342,61.1829963 C134.270492,61.1829963 134.215264,61.1275688 134.215264,61.0594721 L134.215264,59.1422082 C134.215264,59.0738476 134.270492,59.0184201 134.338342,59.0184201 C134.406456,59.0184201 134.461683,59.0738476 134.461683,59.1422082 L134.461683,60.935684 L137.780579,60.935684 L137.780579,58.9804126 C137.780579,58.912052 137.835806,58.8566245 137.90392,58.8566245" id="Fill-83" fill="#FEFEFE"></path>
                        <path d="M160.876493,47.6775558 L160.876493,22.9434257 L149.604607,23.3023848 L149.604607,47.5482249 L160.876493,47.6775558 Z M149.213808,48.3189312 C149.003419,48.3165558 148.831951,48.142619 148.831951,47.9312026 L148.831951,22.9270613 C148.831951,22.7164368 148.996318,22.5461952 149.206181,22.5395967 C149.206181,22.5395967 161.25125,22.1560911 161.251513,22.1560911 C161.364597,22.1560911 161.460324,22.1948903 161.532383,22.2658903 C161.606019,22.3374182 161.649149,22.4387714 161.649149,22.5430279 L161.649149,48.0697714 C161.649149,48.1735 161.606808,48.2743253 161.533172,48.346381 C161.461376,48.4179089 161.364597,48.4575 161.262295,48.4575 L149.213808,48.3189312 Z" id="Fill-85" fill="#FEFEFE"></path>
                        <g id="Group-89" transform="translate(148.324675, 21.854803)">
                            <mask id="mask-2" fill="white">
                                <use xlink:href="#path-1"></use>
                            </mask>
                            <g id="Clip-88"></g>
                            <path d="M1.54283961,1.70339294 L12.2887519,1.36106208 L12.2887519,25.5556978 L1.54283961,25.4321736 L1.54283961,1.70339294 Z M12.9380669,0.0371364312 L12.9301773,0.0371364312 L12.9183429,0.0371364312 L0.873011688,0.421169888 C0.520346104,0.43225539 0.244472727,0.718366914 0.244472727,1.07204721 L0.244472727,26.0764524 C0.244472727,26.4314524 0.532443506,26.7238985 0.886424026,26.7281216 L12.9307032,26.8664264 L12.9309662,26.8664264 C13.1105864,26.8664264 13.2728494,26.7993855 13.3948753,26.6777089 C13.5169013,26.5568242 13.5873818,26.3879022 13.5873818,26.2150212 L13.5873818,0.688277695 C13.5873818,0.51302119 13.5150604,0.342515613 13.3896156,0.220311152 C13.2678526,0.102065799 13.1076935,0.0371364312 12.9380669,0.0371364312 L12.9380669,0.0371364312 Z M12.814726,26.0899134 L12.814726,0.816288848 L1.01686558,1.19214015 L1.01686558,25.954248 L12.814726,26.0899134 L12.814726,26.0899134 Z M12.9380669,0.565017472 C12.9698883,0.565017472 13.0006578,0.577158736 13.0238006,0.59959368 C13.0477325,0.622820446 13.0614078,0.654757249 13.0614078,0.688277695 L13.0614078,26.2150212 C13.0614078,26.2480138 13.0479955,26.2796866 13.0245896,26.3029134 C13.0017097,26.3258762 12.9704143,26.3388093 12.9380669,26.3388093 L12.936489,26.3388093 L0.89220974,26.2002405 C0.824885065,26.1994487 0.770183766,26.1442851 0.770183766,26.0764524 L0.770183766,1.07204721 C0.770183766,1.00527026 0.823307143,0.950634572 0.889842857,0.948786989 L12.9338591,0.565017472 L12.9380669,0.565017472 L12.9380669,0.565017472 Z" id="Fill-87" fill="#FEFEFE" mask="url(#mask-2)"></path>
                        </g>
                        <path d="M119.056667,21.8234996 C118.843647,21.8234996 118.670339,21.6495628 118.670339,21.435771 C118.670339,21.2222431 118.843647,21.0480424 119.056667,21.0480424 L145.729335,21.0480424 C145.942092,21.0480424 146.115663,21.2222431 146.115663,21.435771 C146.115663,21.6495628 145.942092,21.8234996 145.729335,21.8234996 L119.056667,21.8234996 Z" id="Fill-90" fill="#FEFEFE"></path>
                        <path d="M145.729309,20.7842338 L119.05664,20.7842338 C118.698715,20.7842338 118.407325,21.076416 118.407325,21.435903 C118.407325,21.795126 118.698715,22.0873082 119.05664,22.0873082 L145.729309,22.0873082 C146.087234,22.0873082 146.378624,21.795126 146.378624,21.435903 C146.378624,21.076416 146.087234,20.7842338 145.729309,20.7842338 M145.729309,21.3121149 C145.797423,21.3121149 145.85265,21.3675424 145.85265,21.435903 C145.85265,21.5045275 145.797423,21.5596911 145.729309,21.5596911 L119.05664,21.5596911 C118.988527,21.5596911 118.933299,21.5045275 118.933299,21.435903 C118.933299,21.3675424 118.988527,21.3121149 119.05664,21.3121149 L145.729309,21.3121149" id="Fill-92" fill="#FEFEFE"></path>
                        <path d="M119.056667,50.186548 C118.843647,50.186548 118.670339,50.0126112 118.670339,49.7988193 C118.670339,49.5852914 118.843647,49.4110907 119.056667,49.4110907 L144.967725,49.4110907 C145.180744,49.4110907 145.354053,49.5852914 145.354053,49.7988193 C145.354053,50.0126112 145.180744,50.186548 144.967725,50.186548 L119.056667,50.186548 Z" id="Fill-94" fill="#FEFEFE"></path>
                        <path d="M144.96783,49.1472822 L119.056772,49.1472822 C118.698583,49.1472822 118.407457,49.4394643 118.407457,49.7989513 C118.407457,50.1581743 118.698583,50.4503565 119.056772,50.4503565 L144.96783,50.4503565 C145.325756,50.4503565 145.617145,50.1581743 145.617145,49.7989513 C145.617145,49.4394643 145.325756,49.1472822 144.96783,49.1472822 M144.96783,49.6751632 C145.035944,49.6751632 145.091171,49.7305907 145.091171,49.7989513 C145.091171,49.8673119 145.035944,49.9227394 144.96783,49.9227394 L119.056772,49.9227394 C118.988658,49.9227394 118.933431,49.8673119 118.933431,49.7989513 C118.933431,49.7305907 118.988658,49.6751632 119.056772,49.6751632 L144.96783,49.6751632" id="Fill-96" fill="#FEFEFE"></path>
                        <path d="M145.039757,50.1300911 C144.889329,50.1300911 144.751523,50.0414071 144.688669,49.9044219 C144.64554,49.8101952 144.641332,49.7048829 144.677361,49.6077528 C144.71339,49.5100948 144.784923,49.4330242 144.879072,49.3897379 L149.001131,47.4529424 C149.053465,47.4286599 149.107903,47.4167825 149.163919,47.4167825 C149.314348,47.4167825 149.45189,47.5054665 149.515007,47.6424517 C149.558137,47.7366784 149.562082,47.8419907 149.526316,47.9391208 C149.490286,48.0365149 149.418491,48.1135855 149.324605,48.1568717 L145.202546,50.0936673 C145.150212,50.1182138 145.095773,50.1300911 145.039757,50.1300911" id="Fill-98" fill="#FEFEFE"></path>
                        <path d="M149.163814,47.1527628 C149.069928,47.1527628 148.978671,47.1725584 148.893201,47.2124134 L144.765094,49.1518483 C144.44346,49.3001829 144.300132,49.6876476 144.449509,50.0144059 C144.55523,50.24509 144.786658,50.3939524 145.039652,50.3939524 C145.133801,50.3939524 145.224795,50.3738929 145.310529,50.3345658 L149.438373,48.3948669 C149.760269,48.2467963 149.903597,47.8590677 149.753957,47.5323093 C149.648499,47.3016253 149.416808,47.1527628 149.163814,47.1527628 M149.163814,47.6806439 C149.210626,47.6806439 149.255334,47.7075658 149.27611,47.7526996 C149.304512,47.8149896 149.277425,47.8883651 149.21536,47.9168706 L145.091197,49.8547219 C145.074366,49.8626401 145.057009,49.8660714 145.039652,49.8660714 C144.993103,49.8660714 144.948395,49.8394134 144.927619,49.7940156 C144.898954,49.7317257 144.926305,49.6583502 144.988106,49.6301086 L149.112532,47.6919933 C149.1291,47.684339 149.14672,47.6806439 149.163814,47.6806439" id="Fill-100" fill="#FEFEFE"></path>
                        <path d="M149.163814,23.3976145 C149.108061,23.3976145 149.054149,23.3857372 149.003392,23.3625104 L145.544324,21.7947037 C145.348925,21.7044361 145.26398,21.473752 145.353132,21.2797558 C145.415986,21.1425067 145.553529,21.0538227 145.703957,21.0538227 C145.75971,21.0538227 145.813623,21.0657 145.864379,21.0889268 L149.323447,22.6567335 C149.419175,22.7008115 149.490444,22.7778822 149.52621,22.8752762 C149.56224,22.9724063 149.558032,23.0777186 149.514902,23.1719454 C149.452048,23.3089305 149.314243,23.3976145 149.163814,23.3976145" id="Fill-102" fill="#FEFEFE"></path>
                        <path d="M145.703878,20.7899086 L145.703878,20.7899086 C145.450885,20.7899086 145.219456,20.9390349 145.113998,21.169719 C145.041414,21.3278193 145.034839,21.5049234 145.095326,21.6680387 C145.155287,21.8311539 145.275472,21.9610126 145.433002,22.0338602 L148.896278,23.6032506 C148.978593,23.6415219 149.069849,23.6613175 149.163735,23.6613175 C149.416729,23.6613175 149.64842,23.5121911 149.753878,23.2815071 C149.826463,23.1234067 149.833037,22.9465665 149.772813,22.7834513 C149.712326,22.6200721 149.592404,22.4902134 149.435138,22.4176297 L145.971862,20.8482394 C145.889021,20.809968 145.798028,20.7899086 145.703878,20.7899086 M145.703878,21.3177896 C145.720972,21.3177896 145.738593,21.3214848 145.755161,21.329139 L149.215544,22.8972097 C149.277346,22.9259792 149.304433,22.9993546 149.276031,23.0613807 C149.255255,23.1067784 149.210547,23.1334364 149.163735,23.1334364 C149.146641,23.1334364 149.129021,23.1297413 149.112453,23.122087 L145.652596,21.5542803 C145.590531,21.5255108 145.563443,21.4521353 145.591846,21.3898454 C145.612622,21.3447115 145.65733,21.3177896 145.703878,21.3177896" id="Fill-104" fill="#FEFEFE"></path>
                        <path d="M3.70835357,35.8610706 C3.49533409,35.8610706 3.32202565,35.6871338 3.32202565,35.473342 L3.32202565,18.118461 C3.32202565,17.8949033 3.35831786,17.674513 3.42958734,17.4630967 L3.45167825,17.3973755 L11.840701,9.87559851 C11.9098666,9.76263197 12.0334705,9.69136803 12.1694347,9.69136803 C12.2115127,9.69136803 12.2533276,9.69796654 12.2933016,9.71169145 C12.3916588,9.74494796 12.4708179,9.81462825 12.5165776,9.90779926 C12.5620744,10.0007063 12.568649,10.1062825 12.5349867,10.2042045 L12.5128958,10.2693978 L4.14175617,17.7756022 C4.11046071,17.8869851 4.09468149,18.0020632 4.09468149,18.118461 L4.09468149,35.473342 C4.09468149,35.6871338 3.92137305,35.8610706 3.70835357,35.8610706" id="Fill-106" fill="#FEFEFE"></path>
                        <path d="M12.1696451,9.42732193 C11.9555737,9.42732193 11.7601744,9.53210632 11.6405153,9.70102825 L3.32828474,17.1541807 L3.22493084,17.2468238 L3.18048604,17.3785301 C3.10001201,17.6173963 3.05898604,17.8662922 3.05898604,18.1186193 L3.05898604,35.4735004 C3.05898604,35.8324595 3.35037565,36.1249056 3.70830097,36.1249056 C4.06648929,36.1249056 4.35761591,35.8324595 4.35761591,35.4735004 L4.35761591,18.1186193 C4.35761591,18.0507866 4.36445357,17.9834818 4.37786591,17.9177606 L12.6367101,10.5121175 L12.739275,10.4205301 L12.7837198,10.2901435 C12.840262,10.1251807 12.8292166,9.94807658 12.7524244,9.79155985 C12.6756321,9.63477918 12.5425607,9.51758959 12.3776679,9.4616342 C12.3100802,9.43867138 12.2403886,9.42732193 12.1696451,9.42732193 M12.1696451,9.95520297 C12.1825315,9.95520297 12.1959438,9.9573145 12.2090932,9.96153755 C12.273788,9.98344461 12.3085023,10.0536528 12.2864114,10.1185822 L3.9123789,17.6271621 C3.85872955,17.7857903 3.83164188,17.9510171 3.83164188,18.1186193 L3.83164188,35.4735004 C3.83164188,35.541597 3.77641461,35.5970245 3.70830097,35.5970245 C3.64018734,35.5970245 3.58496006,35.541597 3.58496006,35.4735004 L3.58496006,18.1186193 C3.58496006,17.9238312 3.61651851,17.7319465 3.67858344,17.5479799 L12.0528789,10.0391361 C12.070236,9.98766766 12.1180997,9.95520297 12.1696451,9.95520297" id="Fill-108" fill="#FEFEFE"></path>
                        <path d="M16.4781351,60.9818208 L16.4781351,60.9828766 L16.4781351,60.9818208 Z" id="Fill-110" fill="#FEFEFE"></path>
                        <path d="M16.4781351,60.9818208 L16.4781351,60.9828766 L16.4781351,60.9818208 Z" id="Stroke-112" stroke="#FEFEFE" stroke-width="0.525974026"></path>
                        <path d="M12.1697766,61.2565829 C12.0332864,61.2565829 11.9099455,61.185055 11.8407799,61.0720885 L3.45175714,53.5503115 L3.42940325,53.4843264 C3.35813377,53.27291 3.32210455,53.0525197 3.32210455,52.829226 L3.32210455,35.474345 C3.32210455,35.2608171 3.49541299,35.0868803 3.70843247,35.0868803 C3.92145195,35.0868803 4.0944974,35.2608171 4.0944974,35.474345 L4.0944974,52.829226 C4.0944974,52.9458877 4.11027662,53.0607019 4.14157208,53.1720848 L12.5132377,60.6788171 L12.5355916,60.7448022 C12.6034422,60.9464528 12.4953545,61.1668431 12.2941695,61.2359955 C12.2526175,61.2499844 12.2113286,61.2565829 12.1697766,61.2565829" id="Fill-114" fill="#FEFEFE"></path>
                        <path d="M3.70835357,34.8228342 C3.35042825,34.8228342 3.05903864,35.1150164 3.05903864,35.4745033 L3.05903864,52.8293844 C3.05903864,53.0814476 3.10006461,53.3300796 3.18027565,53.5686818 L3.22472045,53.700652 L3.32807435,53.7932952 L11.6405679,61.2467115 C11.7602269,61.4156335 11.9556263,61.5204178 12.1694347,61.5204178 C12.2401782,61.5204178 12.3101328,61.5088045 12.3771945,61.4863695 C12.7164477,61.3710275 12.8992237,61.000719 12.7848244,60.6604996 L12.7403795,60.5285294 L12.6367627,60.4356223 L4.37765552,53.0299792 C4.36450617,52.9639941 4.35766851,52.8972171 4.35766851,52.8293844 L4.35766851,35.4745033 C4.35766851,35.1150164 4.0662789,34.8228342 3.70835357,34.8228342 M3.70835357,35.3507152 C3.77646721,35.3507152 3.83169448,35.4061428 3.83169448,35.4745033 L3.83169448,52.8293844 C3.83169448,52.9967227 3.85878214,53.1619494 3.91216851,53.3203138 L12.286464,60.8291576 C12.3082919,60.893823 12.2735776,60.9640312 12.2091458,60.9862022 C12.1959964,60.9906892 12.1825841,60.9925368 12.1694347,60.9925368 C12.1181523,60.9925368 12.0700256,60.9600721 12.0526685,60.9083398 L3.67863604,53.3997599 C3.6165711,53.2157933 3.58501266,53.0239086 3.58501266,52.8293844 L3.58501266,35.4745033 C3.58501266,35.4061428 3.64023994,35.3507152 3.70835357,35.3507152" id="Fill-116" fill="#FEFEFE"></path>
                        <path d="M35.1887143,18.2015494 C34.2085617,18.2015494 33.2328799,18.0928059 32.2887565,17.8779584 L32.2545682,17.8703041 L18.1418961,10.3532781 C18.0874578,10.3308431 18.0235519,10.2867651 17.9709545,10.2007204 C17.9470227,10.1613933 17.8712825,10.0241442 17.901526,9.90009219 C17.942289,9.72589145 18.0969253,9.60315911 18.2768084,9.60315911 C18.306789,9.60315911 18.3365065,9.60685428 18.3656981,9.61345279 L18.3985714,9.621371 L32.4946753,17.129423 C33.371737,17.3265866 34.2779903,17.4263561 35.1887143,17.4263561 C36.0983864,17.4263561 37.0041136,17.3268506 37.8806494,17.1302149 L41.978776,16.211174 C42.0063896,16.2051033 42.0347922,16.2016721 42.0631948,16.2016721 C42.2454448,16.2016721 42.4003442,16.326516 42.4400552,16.5052037 C42.4626721,16.6041814 42.4450519,16.708174 42.3900877,16.7960662 C42.3348604,16.8839584 42.2486006,16.9449286 42.1473506,16.9676275 L38.049224,17.8866684 C37.117724,18.0957093 36.1551916,18.2015494 35.1887143,18.2015494" id="Fill-118" fill="#FEFEFE"></path>
                        <path d="M18.2769136,9.3391658 L18.2769136,9.3391658 C17.9747416,9.3391658 17.7149104,9.54530335 17.6452188,9.84065279 C17.5852578,10.0987866 17.7393682,10.4558981 18.0218162,10.5878684 L32.1003,18.0869465 L32.1623649,18.119939 L32.2307416,18.1352476 C33.1938,18.3543182 34.1889429,18.4654372 35.1888195,18.4654372 C36.1744948,18.4654372 37.1562253,18.3574855 38.1066604,18.1442216 L42.204524,17.2251807 C42.3744136,17.1871732 42.5193195,17.0850283 42.6121539,16.9372216 C42.7049883,16.7899428 42.7347058,16.6146862 42.6963097,16.4449725 C42.630037,16.1472476 42.3694169,15.9376788 42.063037,15.9376788 C42.0156994,15.9376788 41.9678357,15.9432216 41.92155,15.9535152 L37.8234234,16.8725561 C36.9655597,17.0649688 36.0790305,17.1626268 35.1885565,17.1626268 C34.3088649,17.1626268 33.4339071,17.0673442 32.586563,16.8796825 L18.5517351,9.40409517 L18.491774,9.37215836 L18.4257643,9.35632193 C18.3771117,9.34497249 18.3268812,9.3391658 18.2769136,9.3391658 M18.2769136,9.86704684 C18.2863812,9.86704684 18.2958487,9.8681026 18.3053162,9.87047807 L32.4024721,17.3793219 C33.3131961,17.5865152 34.2510078,17.6905078 35.1885565,17.6905078 C36.1134818,17.6905078 37.0384071,17.5894186 37.9380857,17.387768 L42.0362123,16.4687271 C42.0451539,16.4666156 42.0543584,16.4655599 42.0633,16.4655599 C42.1195792,16.4655599 42.1705987,16.504623 42.1832221,16.562426 C42.1984753,16.629203 42.1563974,16.6951881 42.0898617,16.7102327 L37.9919981,17.6290097 C37.0749623,17.8348833 36.1318909,17.9375561 35.1888195,17.9375561 C34.2325987,17.9375561 33.2763779,17.8319799 32.3469818,17.6205636 L18.248774,10.1111918 C18.1919688,10.0977309 18.1546247,9.97183123 18.1568852,9.96232937 C18.1704039,9.90558216 18.2208974,9.86704684 18.2769136,9.86704684" id="Fill-120" fill="#FEFEFE"></path>
                        <path d="M18.2767821,61.3570914 C18.096899,61.3570914 17.9425256,61.2343591 17.9009737,61.0585747 C17.8712562,60.9361063 17.9472594,60.7988572 17.9709282,60.7595301 C18.0237886,60.6734855 18.0874315,60.6294074 18.1418698,60.6069725 L32.2545419,53.0904743 L32.2887302,53.0822922 C33.2328536,52.8677086 34.2085354,52.7587011 35.188688,52.7587011 C36.1551653,52.7587011 37.1176977,52.8645413 38.0494607,53.0735822 L41.8880192,53.9936788 C41.9847984,54.015058 42.0713211,54.0757643 42.1265484,54.1636565 C42.1820386,54.2512848 42.1996588,54.3555413 42.1765159,54.4566305 C42.1373308,54.6337346 41.9824315,54.7585784 41.8001815,54.7585784 C41.7717789,54.7585784 41.7433763,54.7551472 41.7154997,54.7490766 L37.8769412,53.8292439 C37.0043503,53.6334 36.0986231,53.5338944 35.188688,53.5338944 C34.277964,53.5338944 33.3719737,53.6336639 32.494649,53.8305636 L18.3985451,61.3388796 L18.3656718,61.3467978 C18.3367432,61.3533963 18.3067627,61.3570914 18.2767821,61.3570914" id="Fill-122" fill="#FEFEFE"></path>
                        <path d="M35.1888458,52.4947342 C34.1889692,52.4947342 33.1938263,52.6058532 32.2305049,52.8249238 L32.1623912,52.8407602 L32.1003263,52.8737528 L18.0218425,60.372303 C17.7391315,60.5042732 17.5852841,60.8611208 17.6447192,61.1174071 C17.7149367,61.414868 17.9745049,61.6210056 18.2769399,61.6210056 C18.3269075,61.6210056 18.377138,61.6151989 18.4257906,61.6038494 L18.4918003,61.588013 L18.5517614,61.5560762 L32.5863263,54.0804888 C33.4339334,53.8928271 34.3088912,53.7978086 35.1885828,53.7978086 C36.0790568,53.7978086 36.965586,53.8954665 37.8234497,54.0876152 L41.6509627,55.0050725 C41.704875,55.0174777 41.7524756,55.0224926 41.8000763,55.0224926 C42.1064562,55.0224926 42.3668133,54.8129238 42.433612,54.5128234 C42.4717451,54.3454851 42.4420276,54.1707565 42.3491932,54.0229498 C42.2563588,53.8751431 42.1114529,53.7732621 41.9415633,53.7349907 L38.1140503,52.8177974 C37.1562516,52.6026859 36.1745211,52.4947342 35.1888458,52.4947342 M35.1888458,53.0226152 C36.1316542,53.0226152 37.0747256,53.125552 37.9920244,53.3311617 L41.826901,54.2502026 C41.8934367,54.2649833 41.9355146,54.3309684 41.9202614,54.3980093 C41.907638,54.4555483 41.8566185,54.4946115 41.8003393,54.4946115 C41.7911347,54.4946115 41.7821932,54.4935558 41.7732516,54.4914442 L37.938112,53.5726673 C37.0384334,53.3707528 36.1135081,53.2701914 35.1885828,53.2701914 C34.2510341,53.2701914 33.3132224,53.3736561 32.4024984,53.5808494 L18.3053425,61.0896933 C18.295875,61.0920688 18.2861445,61.0931245 18.2769399,61.0931245 C18.2209237,61.0931245 18.1704302,61.0548532 18.1569115,60.997842 C18.154651,60.9883401 18.1919951,60.8624405 18.2485373,60.8489796 L32.3470081,53.3398717 C33.2764042,53.1281914 34.232625,53.0226152 35.1888458,53.0226152" id="Fill-124" fill="#FEFEFE"></path>
                    </g>
                </g>
            </g>
        </g>
    </g>
</svg>