<?xml version="1.0" encoding="UTF-8"?>
<svg width="63px" height="64px" viewBox="0 0 63 64" version="1.1" xmlns="http://www.w3.org/2000/svg" xmlns:xlink="http://www.w3.org/1999/xlink">
    <!-- Generator: Sketch 55.2 (78181) - https://sketchapp.com -->
    <title>Towing</title>
    <desc>Created with Sketch.</desc>
    <g id="R1S" stroke="none" stroke-width="1" fill="none" fill-rule="evenodd">
        <g id="RDE_Web_Product_R1S" transform="translate(-1036.000000, -2096.000000)">
            <g id="R1S-brand-quote-" transform="translate(0.000000, 1100.000000)">
                <g id="towing" transform="translate(896.000000, 997.000000)">
                    <g id="Towing" transform="translate(141.000000, -0.000000)">
                        <path d="M35.8185714,11.1523845 L25.2138169,11.1523845 L21.8853183,11.1523845 C21.8839593,11.1523845 21.8826035,11.1523698 21.8812512,11.1523406 L10.7742563,11.1523406 C10.5025548,11.1523406 10.2664911,11.3445348 10.2130343,11.609131 L0.439068178,55.553138 C0.448285871,55.5517247 0.457728582,55.5509915 0.467342675,55.5509915 L60.5609445,55.5509915 L50.7880015,11.6126414 C50.7339557,11.3445348 50.497892,11.1523406 50.2261905,11.1523406 L39.0201254,11.1523406 C39.0187749,11.1523698 39.0174212,11.1523845 39.0160643,11.1523845 L35.8185714,11.1523845 Z M25.0176407,10.7867181 L24.6633451,5.22858982 C24.6282964,4.67877392 24.8147322,4.14504733 25.1746447,3.76402301 C25.4859602,3.43448451 25.8953534,3.253114 26.3271306,3.253114 L34.9177593,3.253114 C35.3610231,3.253114 35.7782212,3.44296797 36.0921874,3.78757192 C36.456076,4.18731836 36.6323507,4.73976706 36.5753596,5.30377082 L36.0220626,10.7867181 L38.8515707,10.7867181 L39.7598933,2.81051147 C39.8305799,2.18931749 39.6305957,1.56549072 39.2113359,1.09933928 C38.7920761,0.633041563 38.1905039,0.365666337 37.5610988,0.365666337 L23.6837027,0.365666337 C23.0626916,0.365666337 22.4874796,0.614319447 22.0642437,1.06584424 C21.6410078,1.51722277 21.4323351,2.10477544 21.4766615,2.72011875 L22.0567332,10.7867181 L25.0176407,10.7867181 Z M60.6294871,55.9166578 L0.467342675,55.9166578 C0.432758713,55.9166578 0.400392431,55.9071694 0.372740458,55.8906723 C0.341377673,56.223892 0.460837248,56.5572773 0.704216358,56.7986158 L5.09076059,61.1523854 C5.40384325,61.4632018 5.8200105,61.6343337 6.26283249,61.6343337 L30.5002234,61.6343337 L54.8663228,61.6343337 C55.2263826,61.6343337 55.5643528,61.4953805 55.8186772,61.2427781 L60.2962304,56.798762 C60.532721,56.5641272 60.6520962,56.2426929 60.62948,55.9166578 Z M60.9686681,55.6892948 C60.9699337,55.6943119 60.9709905,55.6994111 60.9718286,55.7045826 C61.0684346,56.1993754 60.9133323,56.7033278 60.5564454,57.0575075 L56.0790395,61.5013774 C55.7550593,61.8228712 55.3246075,62 54.8669119,62 L30.5002234,62 L6.26283249,62 C5.7217856,62 5.21298947,61.7906926 4.83039835,61.4109847 L0.444001376,57.0573613 C0.0845306518,56.7007634 -0.0702435111,56.1924872 0.0298958141,55.6978138 L9.85282729,11.5338037 C9.93986015,11.1023175 10.3277528,10.7866743 10.7742563,10.7866743 L21.6875935,10.7866743 L21.1093857,2.74600793 C21.0576962,2.02842431 21.3012704,1.34331186 21.7948983,0.816606064 C22.2885263,0.289900272 22.9593125,-2.13162821e-14 23.6837027,-2.13162821e-14 L37.5610988,-2.13162821e-14 C38.2952084,-2.13162821e-14 38.9967727,0.311840252 39.4859828,0.855805496 C39.9750456,1.39947821 40.208164,2.12700795 40.1256963,2.85161236 L39.2221382,10.7866743 L50.2261905,10.7866743 C50.6728413,10.7866743 51.0605867,11.1023175 51.1483558,11.5373141 L60.9686681,55.6892948 Z M25.3865572,10.7867181 L35.6520162,10.7867181 L36.2091148,5.26720419 C36.2556501,4.80587954 36.1135406,4.35610994 35.8191605,4.03300717 C35.5758808,3.76592447 35.2557295,3.61878034 34.9177593,3.61878034 L26.3271306,3.61878034 C25.9979962,3.61878034 25.6841772,3.75919621 25.4431065,4.01428505 C25.1524079,4.32188357 25.0021989,4.75614892 25.0307681,5.20547971 L25.3865572,10.7867181 Z" id="towing" stroke="#FFFFFF" stroke-width="1.45999992" fill="#FEFEFE"></path>
                        <g id="Group-14" transform="translate(11.000000, 30.000000)">
                            <path d="M5.17339465,4.6 C4.8361808,4.6 4.5625,4.3312 4.5625,4 C4.5625,3.6688 4.8361808,3.4 5.17339465,3.4 L34.0141054,3.4 C34.3513192,3.4 34.625,3.6688 34.625,4 C34.625,4.3312 34.3513192,4.6 34.0141054,4.6 L5.17339465,4.6 Z" id="Fill-8" stroke="#FFAC00" stroke-width="1.19999993" fill="#FF9300"></path>
                            <polygon id="Fill-10" fill="#FFAC00" points="33 0 39 3.99977105 33 8"></polygon>
                            <polygon id="Fill-12" fill="#FFAC00" points="6 0 0 3.99977105 6 8"></polygon>
                        </g>
                    </g>
                </g>
            </g>
        </g>
    </g>
</svg>